<?xml version="1.0" standalone="no"?>
<!DOCTYPE svg PUBLIC "-//W3C//DTD SVG 1.1//EN" "http://www.w3.org/Graphics/SVG/1.1/DTD/svg11.dtd" >
<svg xmlns="http://www.w3.org/2000/svg" xmlns:xlink="http://www.w3.org/1999/xlink" version="1.1">
<metadata></metadata>
<defs>
<font id="malleable_grotesquelight" horiz-adv-x="980" >
<font-face units-per-em="2048" ascent="1638" descent="-410" />
<missing-glyph horiz-adv-x="368" />
<glyph horiz-adv-x="0" />
<glyph horiz-adv-x="682" />
<glyph unicode=" "  horiz-adv-x="368" />
<glyph unicode="&#x09;" horiz-adv-x="368" />
<glyph unicode="&#xa0;" horiz-adv-x="368" />
<glyph unicode="!" horiz-adv-x="397" d="M127 33v80q0 32 33 32q9 0 22 -1t17 -1t17 1t22 1q32 0 32 -32v-80q0 -15 -8.5 -25t-23.5 -10q-9 0 -22 1t-17 1t-17 -1t-22 -1q-15 0 -24 10t-9 25zM131 1409q0 33 33 33h74q17 0 23.5 -7.5t6.5 -25.5q-6 -492 -6 -582q0 -79 -6.5 -217t-13.5 -236l-6 -98q0 -20 -21 -20 q-3 0 -8 1t-8 1t-9 -1t-10 -1q-17 0 -20 20q-25 373 -25 551z" />
<glyph unicode="&#x22;" horiz-adv-x="575" d="M102 1407q-3 35 33 35h72q33 0 33 -35l-15 -283q0 -30 -28 -30q-2 0 -13 1t-12 1t-10.5 -1t-11.5 -1q-31 0 -31 30zM336 1407q0 35 33 35h71q36 0 33 -35l-14 -283q0 -30 -29 -30q-2 0 -12 1t-12 1q-1 0 -11 -1t-12 -1q-31 0 -31 30z" />
<glyph unicode="#" horiz-adv-x="1579" d="M88 410q0 9 1 17t1 11t-1 12t-1 13q0 29 37 29h307q18 0 21 14l26 446q0 13 -14 13h-311q-41 0 -41 28q0 7 1 15t1 10q0 4 -1 12t-1 12q0 33 41 33h321q14 0 14 12l21 322q1 17 9.5 24t25.5 7h47q34 0 31 -31l-19 -322q0 -12 12 -12h408q14 0 14 12l21 322q3 31 33 31h47 q17 0 24.5 -7t7.5 -24l-20 -322q0 -12 16 -12h287q37 0 37 -31v-49q0 -30 -37 -30h-301q-12 0 -12 -13l-25 -446q0 -14 17 -14h299q34 0 34 -27v-53q0 -29 -34 -29h-306q-16 0 -16 -14l-23 -336q-3 -35 -34 -35q-7 0 -13.5 1t-7.5 1q-4 0 -9 -1t-11 -1q-38 0 -35 35l20 334 q0 16 -16 16h-406q-14 0 -14 -16q-22 -297 -22 -334q-3 -35 -35 -35q-7 0 -14 1t-9 1q-3 0 -8.5 -1t-13.5 -1q-33 0 -33 35l20 334q0 16 -14 16h-307q-37 0 -37 27zM569 506q0 -14 15 -14h399q18 0 21 16l24 442q0 15 -14 15h-408q-14 0 -14 -13z" />
<glyph unicode="$" horiz-adv-x="987" d="M86 336v129q0 19 7 26t26 7h63q19 0 27 -7.5t8 -25.5v-141q0 -116 64 -167t184 -51h55q117 0 184.5 61.5t67.5 170.5v16q0 52 -17 95.5t-41.5 75t-70 63t-85 52t-103.5 50.5q-67 31 -110.5 55t-93 62t-78.5 78.5t-48 99.5t-19 131q0 91 34 164t107 119t175 49q10 0 10 10 v228q0 32 33 32q5 0 15.5 -1t15.5 -1t15 1t15 1q33 0 33 -32v-228q0 -10 10 -10q149 -6 227 -93t78 -235v-119q0 -17 -7.5 -24.5t-24.5 -7.5q-5 0 -15.5 1t-15.5 1t-16.5 -1t-16.5 -1q-33 0 -33 32v117q0 112 -57 164.5t-172 52.5h-51q-108 0 -167.5 -55t-59.5 -158v-4 q0 -77 32 -132t92 -95.5t173 -93.5q60 -28 98.5 -48.5t86.5 -51t77.5 -62t57 -72.5t40 -93t12.5 -114q0 -69 -20.5 -132t-60 -115t-105 -83.5t-148.5 -33.5q-10 0 -10 -12v-222q0 -18 -7.5 -25t-25.5 -7h-63q-18 0 -25.5 7t-7.5 25v222q0 12 -12 12q-164 5 -250 92.5 t-86 251.5z" />
<glyph unicode="%" horiz-adv-x="1064" d="M96 985q0 47 1 90t1 64t-1 73.5t-1 81.5q0 64 37.5 106t104.5 42q6 0 22 -1t19 -1q4 0 20.5 1t26.5 1q67 0 104 -42t37 -106q0 -28 -1 -83t-1 -72q0 -19 1 -72t1 -82q0 -64 -37 -105.5t-104 -41.5q-7 0 -23 1t-22 1q-3 0 -19 -1t-24 -1q-67 0 -104.5 41.5t-37.5 105.5z M140 10q-7 12 1 29q302 604 353 719q33 72 172.5 356t146.5 299q7 17 17 23t28 6h45q17 0 23.5 -10t-0.5 -25q-26 -56 -159.5 -322t-162.5 -329q-28 -63 -175 -363t-175 -362q-13 -33 -47 -33q-4 0 -11 1t-10 1t-11 -1t-11 -1q-17 0 -24 12zM180 997q0 -40 19 -56.5 t59 -16.5h47q78 0 78 71v291q0 39 -19 55.5t-57 16.5h-49q-39 0 -58.5 -16.5t-19.5 -53.5v-291zM598 145q0 47 1 90t1 64t-1 74t-1 82q0 64 37 105.5t104 41.5q7 0 22 -1t19 -1t20.5 1t26.5 1q67 0 104.5 -41.5t37.5 -105.5q0 -29 -1 -84t-1 -72q0 -19 1 -72t1 -82 q0 -64 -37.5 -105.5t-104.5 -41.5q-7 0 -23 1t-22 1q-3 0 -19 -1t-24 -1q-67 0 -104 41.5t-37 105.5zM682 158q0 -40 19 -57t59 -17h47q78 0 78 72v290q0 39 -19 55.5t-57 16.5h-49q-40 0 -59 -16t-19 -53v-291z" />
<glyph unicode="&#x26;" horiz-adv-x="1069" d="M117 293v194q0 92 29.5 145t84.5 85q5 3 12 5.5t10 4.5t3 6t-25 15q-51 24 -82.5 82t-31.5 153v176q0 131 75 209t203 78q13 0 48.5 -1t43.5 -1t37 1t47 1q139 0 214 -77t75 -210v-127q0 -18 -7.5 -25.5t-25.5 -7.5h-65q-18 0 -25.5 7.5t-7.5 25.5v84q0 113 -42 164 t-163 51h-69q-207 0 -207 -180v-160q0 -196 205 -196h51q33 0 33 -33q0 -5 -1 -13.5t-1 -13.5q0 -3 1 -9.5t1 -14.5q0 -35 -33 -35h-51q-94 0 -149.5 -49.5t-55.5 -157.5v-170q0 -87 51 -137.5t156 -50.5h80q121 0 164.5 51.5t43.5 163.5v403q0 64 64 64h192q33 0 33 -33 q0 -5 -1 -13.5t-1 -13.5q0 -3 1 -9t1 -13q0 -35 -33 -35h-100q-25 0 -25 -27v-368q0 -132 -75 -209.5t-217 -77.5q-16 0 -50 1t-40 1q-8 0 -43.5 -1t-53.5 -1q-135 0 -206.5 82.5t-71.5 216.5z" />
<glyph unicode="'" horiz-adv-x="342" d="M102 1405q-3 37 35 37h68q35 0 35 -37l-15 -281q0 -14 -8.5 -22t-21.5 -8q-2 0 -12 1t-11 1t-10.5 -1t-11.5 -1q-31 0 -31 30z" />
<glyph unicode="(" horiz-adv-x="632" d="M76 690v58q0 315 119 562t325 402q26 20 45 -2l29 -29q20 -23 0 -43q-73 -67 -126 -125t-108 -142t-89 -173.5t-56 -212.5t-22 -266q0 -144 22 -267t56 -212.5t89.5 -174t107.5 -142.5t126 -126q21 -17 2 -39l-31 -30q-20 -20 -45 -2q-205 153 -324.5 402t-119.5 562z " />
<glyph unicode=")" horiz-adv-x="632" d="M37 -242q-19 22 2 39q74 68 126 126t107.5 142.5t89.5 174t56 212.5t22 267q0 143 -22 266t-56 212.5t-89 173.5t-108 142t-126 125q-20 20 0 43l29 29q19 22 45 2q206 -155 325 -402t119 -562v-58q0 -313 -119.5 -562t-324.5 -402q-25 -18 -45 2z" />
<glyph unicode="*" horiz-adv-x="671" d="M102 1290l17 35q13 26 41 10l121 -61q5 -3 7.5 -1t2.5 7l-2 131q0 29 28 29h39q29 0 29 -29l-2 -131q0 -5 2.5 -7t7.5 1l121 61q28 16 41 -10l16 -35q14 -32 -14 -41l-129 -59q-4 -2 -4 -6.5t4 -7.5l129 -76q24 -15 8 -41l-22 -35q-14 -24 -41 -4l-109 78q-3 3 -6.5 1 t-3.5 -7l2 -146q0 -31 -27 -31h-41q-28 0 -28 31l2 146q0 5 -3.5 7t-6.5 -1l-109 -78q-27 -20 -41 4l-22 35q-16 26 8 41l129 76q4 3 4 7.5t-4 6.5l-129 59q-29 10 -15 41z" />
<glyph unicode="+" horiz-adv-x="886" d="M80 616v39q0 35 33 35h262q16 0 16 17v258q0 32 35 32q3 0 9 -1t9 -1q4 0 11 1t10 1q33 0 33 -32v-258q0 -17 16 -17h260q33 0 33 -35v-39q0 -20 -7.5 -27t-25.5 -7h-260q-16 0 -16 -19v-256q0 -33 -33 -33h-39q-35 0 -35 33v256q0 19 -16 19h-262q-33 0 -33 34z" />
<glyph unicode="," horiz-adv-x="382" d="M111 37v88q0 37 34 37h93q19 0 26.5 -8.5t7.5 -28.5v-86q0 -176 -151 -176q-10 0 -10 8v39q0 10 10 10q72 0 72 74q0 6 -7 6h-36q-39 0 -39 37z" />
<glyph unicode="-" horiz-adv-x="854" d="M121 604v53q0 33 33 33l104 -1q103 -1 172 -1q48 0 118 1t99.5 1.5t54.5 -0.5q33 0 33 -33v-53q0 -33 -33 -33q-6 0 -49.5 0.5t-107 1t-115.5 0.5q-50 0 -114 -0.5t-110 -1t-52 -0.5q-33 0 -33 33z" />
<glyph unicode="." horiz-adv-x="382" d="M113 33v98q0 33 32 33q9 0 26 -1t22 -1t21 1t24 1q34 0 34 -33v-98q0 -35 -34 -35q-8 0 -24 1t-21 1t-22 -1t-26 -1q-32 0 -32 35z" />
<glyph unicode="/" horiz-adv-x="618" d="M80 37q17 63 93 362t89 357l164 657q4 17 13 23t28 6h47q34 0 25 -35q-11 -49 -84 -336t-80 -315l-182 -725q-4 -19 -13 -26t-28 -7q-5 0 -12 1t-11 1q-3 0 -11.5 -1t-11.5 -1q-35 0 -26 39z" />
<glyph unicode="0" horiz-adv-x="989" d="M121 305q0 48 2 199t2 213q0 50 -2 212.5t-2 205.5q0 135 78.5 223t222.5 88q13 0 40.5 -1t33.5 -1q5 0 29.5 1t39.5 1q144 0 223.5 -87t79.5 -220q0 -15 -2 -187t-2 -233q0 -65 2 -231t2 -183q0 -135 -79.5 -223t-223.5 -88q-15 0 -38.5 1t-30.5 1q-5 0 -31.5 -1 t-42.5 -1q-144 0 -222.5 88t-78.5 223zM250 319q0 -107 52.5 -157.5t160.5 -50.5h63q107 0 159 51t52 157v801q0 108 -52 158.5t-159 50.5h-63q-108 0 -160.5 -50.5t-52.5 -158.5v-801z" />
<glyph unicode="1" horiz-adv-x="600" d="M35 1358q0 5 1 13t1 13q0 4 -1 11t-1 14q0 33 33 33q28 0 92 -1t88 -1q20 0 81 1t101 1q18 0 25.5 -7.5t7.5 -25.5q0 -83 -1 -322t-1 -374q0 -27 1 -275t1 -405q0 -35 -33 -35q-5 0 -16.5 1t-16.5 1t-18.5 -1t-18.5 -1q-32 0 -32 35q0 91 1 330t1 352l-2 592q0 18 -19 18 h-241q-33 0 -33 33z" />
<glyph unicode="2" horiz-adv-x="970" d="M96 41v72q0 104 23 186t76 153t118.5 128.5t171.5 132.5q145 103 199.5 182t54.5 205q0 118 -60.5 174.5t-191.5 56.5q-135 0 -193 -49.5t-58 -165.5v-119q0 -18 -7.5 -25t-25.5 -7h-66q-18 0 -25.5 7t-7.5 25v115q0 153 84 243.5t246 90.5q6 0 28.5 -1t29.5 -1q6 0 29 1 t34 1q140 0 226.5 -92.5t86.5 -247.5v-12q0 -70 -17 -131t-41 -105t-66 -89.5t-77 -74.5t-89 -69q-66 -47 -103.5 -76.5t-83 -69.5t-70 -73t-47.5 -75.5t-32 -89.5t-9 -104q0 -18 19 -18h600q33 0 33 -33v-55q0 -33 -31 -33q-64 0 -200.5 1t-174.5 1q-32 0 -169.5 -1 t-174.5 -1q-39 0 -39 43z" />
<glyph unicode="3" horiz-adv-x="974" d="M106 281v165q0 18 7.5 25.5t25.5 7.5h66q18 0 25.5 -7.5t7.5 -25.5v-122q0 -112 44.5 -163.5t166.5 -51.5h69q107 0 157 50.5t50 137.5v172q0 108 -55.5 157.5t-149.5 49.5h-137q-33 0 -33 33q0 7 1 13t1 9q0 5 -1 13t-1 12q0 32 33 32h137q205 0 205 199v168 q0 176 -207 176h-69q-122 0 -165.5 -51.5t-43.5 -165.5v-117q0 -18 -7.5 -25t-25.5 -7h-66q-18 0 -25 7t-7 25v162q0 131 78 209t214 78q18 0 46.5 -1t35.5 -1q10 0 48 1t47 1q130 0 204 -76t74 -207v-182q0 -180 -115 -233q-2 -1 -11 -4.5t-12 -6t-3 -6.5q0 -2 1.5 -4 t4.5 -4t5.5 -3.5t7 -3.5t7.5 -3q57 -26 86 -80t29 -148v-192q0 -134 -71.5 -216.5t-206.5 -82.5q-16 0 -50.5 1t-42.5 1q-5 0 -37.5 -1t-48.5 -1q-139 0 -216 78t-77 209z" />
<glyph unicode="4" horiz-adv-x="991" d="M113 539v870q0 19 7.5 26t24.5 7h64q18 0 25.5 -7.5t7.5 -25.5v-772q0 -21 20 -21h443q20 0 20 21v772q0 18 7.5 25.5t25.5 7.5h63q18 0 25.5 -7.5t7.5 -25.5q0 -81 -1 -300t-1 -368q0 -2 1 -274t1 -434q0 -35 -33 -35q-5 0 -16.5 1t-16.5 1t-16 -1t-16 -1q-33 0 -33 35 v444q0 19 -18 19h-549q-43 0 -43 43z" />
<glyph unicode="5" horiz-adv-x="962" d="M113 281l2 163q0 18 7.5 25.5t24.5 7.5h64q18 0 25.5 -7.5t7.5 -25.5l-2 -122q-2 -109 44 -160t169 -51h63q121 0 167 65.5t46 192.5v231q0 95 -57.5 151t-151.5 56q-92 0 -162 -30t-139 -89q-23 -21 -63 -4t-39 49q4 74 11 347t7 315q3 47 53 47q19 0 149 -1t157 -1 q24 0 149 1t166 1q33 0 33 -33q0 -4 -1 -13t-1 -14q0 -3 1 -10.5t1 -15.5q0 -33 -33 -33h-526q-25 0 -25 -25l-14 -452q0 -6 5 -8t9 2q110 84 270 84q157 0 243.5 -84.5t86.5 -221.5v-276q0 -154 -69 -251t-211 -97q-13 0 -39 1t-49 1t-51.5 -1t-34.5 -1q-139 0 -216 78 t-77 209z" />
<glyph unicode="6" d="M121 299q0 63 2 210t2 208q0 55 -2 213t-2 213q0 133 77.5 218t219.5 85q12 0 40.5 -1t35.5 -1t31.5 1t39.5 1q144 0 221 -83t80 -218v-148q0 -18 -7 -25t-25 -7h-66q-18 0 -25.5 7t-7.5 25v125q0 108 -51.5 158.5t-159.5 50.5h-63q-108 0 -158.5 -50.5t-50.5 -160.5 v-268q0 -23 22 -23h316q145 0 212.5 -73.5t67.5 -198.5v-258q0 -134 -78 -219.5t-221 -85.5q-16 0 -41.5 1t-33.5 1q-6 0 -34.5 -1t-45.5 -1q-142 0 -218.5 83.5t-76.5 221.5zM254 311q0 -95 53 -147.5t156 -52.5h61q109 0 161 49.5t52 154.5v230q0 79 -44.5 122.5 t-121.5 43.5h-297q-20 0 -20 -19v-381z" />
<glyph unicode="7" horiz-adv-x="841" d="M43 1354v55q0 18 7.5 25.5t25.5 7.5q65 0 172.5 -1t140.5 -1q19 0 163.5 1t188.5 1q56 0 56 -49v-52q0 -26 -13 -49q-205 -283 -296 -567.5t-91 -683.5v-8q0 -35 -32 -35q-5 0 -16.5 1t-16.5 1t-17.5 -1t-17.5 -1q-33 0 -33 35v8q2 759 379 1264q6 9 4 16q-1 2 -12 2 q-43 -2 -207 -2h-354q-31 0 -31 33z" />
<glyph unicode="8" d="M119 297v211q2 85 28 143t76 78q27 9 27 14q0 2 -1 4t-3.5 3.5t-5 2.5t-7 3t-8.5 4q-101 47 -104 196v187q0 134 76.5 218.5t218.5 84.5q15 0 43 -1t35 -1q6 0 31.5 1t41.5 1q141 0 218 -85t77 -218v-187q-3 -149 -106 -196q-5 -3 -12.5 -6t-10 -5t-2.5 -6t27 -14 q103 -40 106 -221v-211q0 -134 -73 -218.5t-224 -84.5q-14 0 -38 1t-35 1t-37 -1t-41 -1q-152 0 -224.5 84t-72.5 219zM246 317q0 -106 53 -157t162 -51h63q107 0 159 51t52 157v193q0 90 -46.5 135t-145.5 45h-105q-98 0 -144 -44.5t-48 -135.5v-193zM248 981 q0 -93 46 -135.5t150 -42.5h97q103 0 148.5 42.5t45.5 135.5v139q0 109 -51.5 160t-163.5 51h-59q-110 0 -161.5 -51t-51.5 -160v-139z" />
<glyph unicode="9" d="M111 883v258q0 137 78 221t221 84q16 0 41.5 -1t33.5 -1q6 0 34.5 1t45.5 1q142 0 218.5 -84.5t76.5 -220.5q0 -63 -2 -210t-2 -208q0 -55 2 -213t2 -213q0 -134 -77.5 -219.5t-219.5 -85.5q-12 0 -40.5 1t-35.5 1t-31.5 -1t-39.5 -1q-144 0 -221 84t-80 219v137 q0 33 32 33q5 0 16.5 -1t16.5 -1t16.5 1t16.5 1q33 0 33 -35v-113q0 -108 51.5 -158t159.5 -50h63q108 0 158.5 50t50.5 160v269q0 22 -22 22h-316q-145 0 -212.5 74t-67.5 199zM244 895q0 -79 44.5 -122.5t121.5 -43.5h297q20 0 20 19v380q0 96 -52 148.5t-157 52.5h-61 q-109 0 -161 -50t-52 -155v-229z" />
<glyph unicode=":" horiz-adv-x="409" d="M125 33v98q0 33 35 33q8 0 24 -1t21 -1t22 1t25 1q33 0 33 -33v-98q0 -35 -33 -35q-8 0 -25 1t-22 1t-21 -1t-24 -1q-17 0 -26 9.5t-9 25.5zM125 881v98q0 33 35 33q8 0 24 -1t21 -1t22 1t25 1q33 0 33 -33v-98q0 -33 -33 -33h-92q-35 0 -35 33z" />
<glyph unicode=";" horiz-adv-x="409" d="M125 33v98q0 33 35 33q7 0 24 -1t23 -1q5 0 21 1t24 1q35 0 35 -33v-92q0 -176 -152 -176q-10 0 -10 8v39q0 10 10 10q72 0 72 72q0 8 -8 8h-39q-35 0 -35 33zM125 924q0 13 3.5 39t8.5 26q9 21 43 21h45q23 0 39 -13q9 0 15 -23.5t6 -39.5q0 -12 -4 -39t-9 -27 q-9 -22 -41 -22q-7 0 -24 1t-23 1q-27 0 -37 10q-9 0 -15.5 25t-6.5 41z" />
<glyph unicode="&#x3c;" horiz-adv-x="1107" d="M80 586v80q0 23 26 36l836 312q17 6 28 -1t11 -24q0 -4 -1 -12.5t-1 -13.5q0 -4 1 -11.5t1 -11.5q0 -30 -33 -43l-743 -264q-10 -3 -10 -8q0 -6 10 -9l743 -264q33 -10 33 -41q0 -4 -1 -11.5t-1 -12.5q0 -4 1 -13.5t1 -13.5q0 -15 -11 -21.5t-28 -0.5q-824 305 -836 311 q-26 10 -26 37z" />
<glyph unicode="=" horiz-adv-x="978" d="M127 449q0 5 1 10.5t1 9.5t-1 11t-1 12q0 32 35 32q6 0 65 -0.5t136.5 -1t128.5 -0.5q47 0 132.5 1t126 1.5t68.5 -0.5q33 0 33 -32v-43q0 -33 -33 -33q-6 0 -63.5 0.5t-134.5 1t-129 0.5q-50 0 -127.5 -0.5t-137 -1t-65.5 -0.5q-35 0 -35 33zM127 784q0 5 1 11t1 10 t-1 10.5t-1 11.5q0 33 35 33q6 0 65 -0.5t136.5 -1t128.5 -0.5q47 0 132.5 1t126 1.5t68.5 -0.5q33 0 33 -33v-43q0 -32 -33 -32q-6 0 -63.5 0.5t-134.5 1t-129 0.5q-50 0 -127.5 -0.5t-137 -1t-65.5 -0.5q-35 0 -35 32z" />
<glyph unicode="&#x3e;" horiz-adv-x="1105" d="M127 279v49q0 29 31 43l743 264q10 3 10 8t-10 8l-743 264q-31 10 -31 41v52q0 15 10 21.5t27 0.5q823 -305 835 -311q29 -10 29 -37q0 -10 -1 -22t-1 -17q0 -7 1 -19t1 -22q0 -27 -29 -37l-835 -311q-17 -6 -27 1t-10 24z" />
<glyph unicode="?" horiz-adv-x="909" d="M80 1001v142q0 133 77.5 218t219.5 85q12 0 40.5 -1t35.5 -1q9 0 33 1t40 1q141 0 218 -83t77 -216v-234q0 -139 -83.5 -217t-225.5 -78q-20 0 -20 -20v-301q0 -33 -33 -33q-5 0 -16.5 1t-16.5 1t-16.5 -1t-16.5 -1q-33 0 -33 33q0 29 1 100t1 101q0 26 -1 93.5t-1 115.5 q0 26 31 26h82q110 0 165.5 52.5t55.5 152.5v184q0 109 -52 159t-161 50h-63q-110 0 -159.5 -49.5t-49.5 -159.5v-121q0 -18 -7.5 -25t-25.5 -7h-63q-18 0 -25.5 7t-7.5 25zM354 33v80q0 32 35 32q7 0 19 -1t18 -1q4 0 16.5 1t20.5 1q35 0 35 -32v-80q0 -16 -9 -25.5 t-26 -9.5q-8 0 -20.5 1t-16.5 1q-6 0 -18 -1t-19 -1q-17 0 -26 9.5t-9 25.5z" />
<glyph unicode="@" horiz-adv-x="1361" d="M137 35v1374q0 33 35 33h1026q33 0 33 -35v-1110q0 -35 -33 -35h-307q-37 0 -37 39v770q0 16 -16 16h-207q-127 0 -127 -129v-483q0 -110 123 -110h116q29 0 29 -27q0 -4 -1 -11.5t-1 -11.5q0 -5 1 -10t1 -12q0 -31 -29 -31h-127q-223 0 -223 203v496q0 107 58.5 167 t169.5 60h276q66 0 66 -70v-737q0 -9 2.5 -11.5t11.5 -2.5h131q9 0 11.5 2.5t2.5 11.5v940q0 14 -14 14h-846q-14 0 -14 -14v-1204q0 -13 12 -13h946q27 0 27 -26v-45q0 -33 -27 -33h-1034q-35 0 -35 35z" />
<glyph unicode="A" horiz-adv-x="958" d="M47 39q342 1341 348 1368q8 35 41 35h86q35 0 43 -35l348 -1368q5 -18 -2 -29.5t-24 -11.5q-5 0 -18 1t-17 1t-14.5 -1t-20.5 -1q-17 0 -25 9t-14 32q-44 174 -69 272q-6 25 -27 25h-403q-23 0 -29 -25l-70 -272q-5 -23 -12.5 -32t-24.5 -9q-10 0 -20.5 1t-13.5 1 q-5 0 -17.5 -1t-17.5 -1q-17 0 -24.5 11.5t-2.5 29.5zM287 471q-3 -9 2 -14.5t14 -5.5h354q9 0 13.5 5.5t1.5 14.5q-1 6 -49 192.5t-50 202.5q-53 215 -69.5 291t-20.5 129q0 6 -4 6t-4 -6q-6 -72 -79 -381l-9 -39z" />
<glyph unicode="B" horiz-adv-x="999" d="M135 43q0 109 1 345.5t1 342.5q0 102 -1 360t-1 308q0 43 45 43q51 0 130.5 -1t99.5 -1q28 0 87 1t91 1q146 0 222.5 -81.5t76.5 -225.5v-162q0 -78 -30 -140t-75 -81q-24 -10 -24 -17q0 -3 2 -5.5t4.5 -3.5t8 -4t9.5 -5q109 -59 109 -207v-207q0 -146 -78 -225.5 t-227 -79.5q-7 0 -74.5 1t-105.5 1q-19 0 -102 -1t-124 -1q-24 0 -34.5 10.5t-10.5 34.5zM264 135q0 -20 21 -20h284q90 0 140.5 51.5t50.5 136.5v195q0 90 -53 136t-125 46h-297q-21 0 -21 -18v-527zM264 811q0 -18 21 -18h295q77 0 127.5 49t50.5 139v154q0 85 -48 139.5 t-137 54.5h-288q-21 0 -21 -20v-498z" />
<glyph unicode="C" d="M121 309q0 96 1 196t1 212q0 78 -1 211.5t-1 204.5q0 135 76 224t217 89q12 0 45 -1t43 -1q12 0 46 1t44 1q141 0 216 -89.5t75 -226.5v-98q0 -33 -33 -33q-5 0 -16.5 1t-16.5 1t-16.5 -1t-16.5 -1q-32 0 -32 33v88q0 108 -50.5 158.5t-158.5 50.5h-80q-109 0 -161 -50 t-52 -159v-803q0 -106 52.5 -156t160.5 -50h82q217 0 217 206v121q0 33 33 33q5 0 16 -1t16 -1t16.5 1t16.5 1q33 0 33 -33v-129q0 -136 -79.5 -225.5t-221.5 -89.5q-10 0 -44 1t-46 1t-44 -1t-44 -1q-141 0 -217 88.5t-76 226.5z" />
<glyph unicode="D" horiz-adv-x="1015" d="M135 41q0 106 1 345.5t1 348.5q0 104 -1 366t-1 300q0 41 45 41q49 0 142 -1t114 -1q29 0 74.5 1t79.5 1q145 0 226 -84t81 -225q0 -45 -1 -163t-1 -235q0 -99 1 -221t1 -207q0 -144 -81 -226.5t-226 -82.5q-18 0 -85 1t-97 1q-12 0 -92 -1t-136 -1q-45 0 -45 43z M264 137q0 -20 21 -20h288q90 0 141.5 51t51.5 135v834q0 83 -52 137.5t-141 54.5h-288q-21 0 -21 -20v-1172z" />
<glyph unicode="E" horiz-adv-x="876" d="M135 43q0 114 1 350t1 340q0 115 -1 380t-1 286q0 43 43 43q53 0 154 -1t119 -1q30 0 148 1t155 1q32 0 32 -33q0 -6 -1 -14t-1 -13q0 -4 1 -12.5t1 -13.5q0 -33 -32 -33h-469q-21 0 -21 -20v-492q0 -20 21 -20h442q33 0 33 -33q0 -6 -1 -14t-1 -13q0 -4 1 -12.5t1 -13.5 q0 -33 -33 -33h-442q-21 0 -21 -21v-514q0 -18 21 -18h475q33 0 33 -33q0 -8 -1 -16t-1 -11q0 -5 1 -14t1 -14q0 -33 -33 -33q-64 0 -169.5 1t-137.5 1q-25 0 -131.5 -1t-141.5 -1q-45 0 -45 45z" />
<glyph unicode="F" horiz-adv-x="821" d="M135 33q0 121 1 357t1 343q0 111 -1 361t-1 307q0 41 45 41q53 0 154.5 -1t120.5 -1q30 0 141.5 1t148.5 1q18 0 25.5 -7.5t7.5 -25.5v-53q0 -33 -33 -33h-460q-19 0 -19 -18v-519q0 -20 19 -20h366q33 0 33 -33q0 -7 -1 -15t-1 -11q0 -5 1 -14t1 -13q0 -33 -33 -33h-366 q-19 0 -19 -20v-594q0 -35 -33 -35q-5 0 -16 1t-16 1t-16.5 -1t-16.5 -1q-33 0 -33 35z" />
<glyph unicode="G" horiz-adv-x="997" d="M119 307q0 103 2 203t2 211q0 80 -2 206.5t-2 205.5q0 135 77 224t218 89q12 0 45 -1t43 -1q12 0 46 1t46 1q140 0 214.5 -89.5t74.5 -226.5v-129q0 -32 -33 -32q-5 0 -16.5 1t-16.5 1t-16.5 -1t-16.5 -1q-17 0 -24.5 7.5t-7.5 24.5v119q0 108 -50.5 158.5t-156.5 50.5 h-82q-109 0 -161 -50t-52 -159v-803q0 -206 219 -206h72q221 0 221 206v320q0 18 -21 18h-204q-33 0 -33 33q0 4 1 12.5t1 12.5q0 5 -1 12t-1 14q0 33 33 33q10 0 63 -1t72 -1q21 0 69.5 1t59.5 1q88 0 88 -88v-377q0 -133 -80.5 -223t-222.5 -90q-13 0 -43 1t-39 1 q-12 0 -42 -1t-42 -1q-141 0 -221 88.5t-80 224.5z" />
<glyph unicode="H" horiz-adv-x="1071" d="M137 33q0 119 1 340t1 340q0 131 -1 335.5t-1 360.5q0 18 7.5 25.5t25.5 7.5h66q18 0 25 -7t7 -26v-621q0 -20 21 -20h495q21 0 21 20v621q0 18 7.5 25.5t25.5 7.5h65q18 0 25.5 -7.5t7.5 -25.5q0 -150 -1 -356.5t-1 -339.5q0 -115 1 -330t1 -350q0 -35 -33 -35 q-5 0 -16.5 1t-16.5 1t-16 -1t-16 -1q-33 0 -33 35v596q0 20 -21 20h-495q-21 0 -21 -20v-596q0 -35 -32 -35q-5 0 -16.5 1t-16.5 1t-16.5 -1t-16.5 -1q-33 0 -33 35z" />
<glyph unicode="I" horiz-adv-x="403" d="M135 33q0 108 1 330t1 362q0 147 -1 364.5t-1 319.5q0 18 7.5 25.5t25.5 7.5h68q18 0 25 -7t7 -26q0 -106 -1 -322t-1 -362q0 -140 1 -362t1 -330q0 -35 -32 -35q-5 0 -16.5 1t-16.5 1t-17.5 -1t-17.5 -1q-33 0 -33 35z" />
<glyph unicode="J" horiz-adv-x="641" d="M39 35q0 7 1 14t1 10q0 5 -1 14t-1 13q0 33 33 33h131q98 0 137 42t39 132q0 19 1 220.5t1 303.5q-2 267 -2 592q0 18 7.5 25.5t25.5 7.5h63q18 0 25.5 -7.5t7.5 -25.5q0 -107 -1 -286t-1 -308q0 -59 1 -228.5t1 -314.5q0 -272 -287 -272h-149q-33 0 -33 35z" />
<glyph unicode="K" horiz-adv-x="966" d="M135 33q0 124 1 353.5t1 348.5q0 126 -1 339.5t-1 334.5q0 18 7.5 25.5t25.5 7.5h68q18 0 25 -7t7 -26v-582l-4 -190q0 -8 4 -10q6 -3 11 6q34 67 106 184q364 588 371 598q16 27 41 27h71q18 0 24 -12t-3 -27q-314 -524 -332 -553q-11 -20 -4 -35l391 -778 q7 -13 0.5 -26t-22.5 -13q-3 0 -18 1t-17 1q-3 0 -17.5 -1t-17.5 -1q-34 0 -51 33q-237 467 -303 606l-33 70q-5 10 -10 10q-6 0 -13 -10l-168 -293q-8 -11 -8 -29l2 -352q0 -35 -32 -35q-5 0 -16.5 1t-16.5 1t-17.5 -1t-17.5 -1q-33 0 -33 35z" />
<glyph unicode="L" horiz-adv-x="794" d="M137 41q0 153 1 387t1 313q0 138 -1 343.5t-1 324.5q0 18 7.5 25.5t25.5 7.5h66q18 0 25 -7t7 -26q0 -129 -1 -331t-1 -337q0 -16 0.5 -103.5t1 -225t0.5 -275.5q0 -18 19 -18h448q33 0 33 -33q0 -5 -1 -14t-1 -13q0 -5 1 -13t1 -15q0 -33 -33 -33q-57 0 -150.5 1 t-125.5 1q-57 0 -151 -1t-126 -1q-45 0 -45 43z" />
<glyph unicode="M" horiz-adv-x="1460" d="M135 33q2 608 2 712q0 76 -0.5 235t-1 290t-0.5 137q0 35 37 35h117q21 0 32 -9t17 -30q136 -401 295 -903q73 -233 88 -328q3 -10 8 -10t8 10q20 104 90 328q74 233 173.5 536t123.5 367q6 22 16.5 30.5t30.5 8.5h119q35 0 35 -35q0 -3 -1 -281t-1 -381l2 -712 q0 -35 -33 -35q-5 0 -15 1t-15 1t-15.5 -1t-15.5 -1q-33 0 -33 35v690q0 81 0.5 154t1 124.5t1.5 95t2 72t1.5 47.5t1 28.5t0.5 10.5q0 5 -2.5 7.5t-6 1t-5.5 -8.5l-379 -1216q-7 -22 -15.5 -31.5t-27.5 -9.5q-4 0 -21 1t-20 1q-1 0 -19 -1t-22 -1q-18 0 -26 9.5t-15 31.5 l-379 1216q-2 7 -5.5 8.5t-6 -1t-2.5 -7.5q0 -1 0.5 -10.5t1 -28.5t1.5 -47.5t2 -72t1.5 -95t1 -124.5t0.5 -154v-690q0 -35 -33 -35q-5 0 -15 1t-15 1t-15.5 -1t-15.5 -1q-33 0 -33 35z" />
<glyph unicode="N" horiz-adv-x="1157" d="M135 33q2 444 2 665v709q0 35 35 35h117q28 0 43 -35q7 -18 141 -311t154 -342q5 -12 63 -135t68 -150q111 -236 135 -324q6 -12 8 -12q4 0 4 10q-10 146 -10 691l-2 575q0 18 7.5 25.5t25.5 7.5h65q18 0 25.5 -7.5t7.5 -25.5q-4 -450 -4 -711l2 -663q0 -37 -35 -37h-117 q-29 0 -47 37l-272 586q-17 41 -78.5 170.5t-69.5 150.5q-113 251 -143 346q-4 12 -8 12t-4 -12q12 -192 12 -788l4 -467q0 -35 -33 -35q-5 0 -15 1t-15 1t-16.5 -1t-16.5 -1q-33 0 -33 35z" />
<glyph unicode="O" horiz-adv-x="1003" d="M119 307q0 77 1 201t1 211q0 83 -1 208t-1 206q0 133 79.5 223t219.5 90q10 0 41 -1t43 -1t43 1t41 1q140 0 219.5 -90t79.5 -223q0 -81 -1 -206t-1 -208q0 -87 1 -211t1 -201q0 -133 -79.5 -223t-219.5 -90q-10 0 -41 1t-43 1q-4 0 -38.5 -1t-45.5 -1q-140 0 -219.5 90 t-79.5 223zM250 317q0 -206 217 -206h68q219 0 219 206v803q0 209 -217 209h-70q-217 0 -217 -209v-803z" />
<glyph unicode="P" d="M137 33q0 158 1 377t1 346q0 32 -1 230t-1 413q0 43 45 43q51 0 136 -1t118 -1q35 0 88.5 1t83.5 1h3q135 0 211 -77q78 -78 77 -208q0 -28 -1 -83.5t-1 -96.5q0 -35 1 -83t1 -89q0 -125 -80.5 -208t-210.5 -83h-319q-21 0 -21 -20v-461q0 -35 -32 -35q-5 0 -16.5 1 t-16.5 1t-16.5 -1t-16.5 -1q-33 0 -33 35zM268 653q0 -20 21 -20h303q84 0 129 50.5t45 131.5v334q0 82 -45.5 129t-128.5 47h-303q-21 0 -21 -20v-652z" />
<glyph unicode="Q" horiz-adv-x="1005" d="M121 307q0 79 1 202.5t1 209.5q0 83 -1 208t-1 206q0 133 79.5 223t219.5 90q10 0 40 -1t42 -1q13 0 44 1t40 1q141 0 221 -90.5t80 -222.5q0 -80 -1 -205.5t-1 -210.5t1 -208.5t1 -201.5q0 -129 -76.5 -218t-212.5 -95q-17 0 -22 -6t-5 -21v-198q0 -19 -7.5 -26 t-24.5 -7h-68q-18 0 -25.5 7.5t-7.5 25.5v198q0 15 -6.5 21t-25.5 6q-134 6 -209.5 95t-75.5 218zM252 317q0 -106 54 -156t163 -50h68q219 0 219 206v803q0 209 -219 209h-68q-109 0 -163 -51t-54 -158v-803z" />
<glyph unicode="R" horiz-adv-x="1019" d="M135 1399q0 43 43 43q49 0 125.5 -1t97.5 -1q26 0 86.5 1t94.5 1q148 0 224.5 -81t76.5 -226q0 -21 -1 -56t-1 -49q0 -11 1 -46t1 -62q0 -178 -107 -230q-24 -12 -24 -16t24 -14q107 -46 107 -199v-293q0 -51 49 -51q33 0 33 -33v-55q0 -33 -31 -33h-23q-82 0 -120.5 42 t-38.5 128l2 278q0 158 -162 158h-309q-21 0 -21 -20v-551q0 -35 -33 -35q-5 0 -14 1t-14 1t-15.5 -1t-15.5 -1q-33 0 -33 35q0 81 1 328.5t1 377.5q0 78 -2 354.5t-2 305.5zM262 743q0 -18 21 -18h309q74 0 119 53t45 144v221q0 83 -46 134.5t-135 51.5h-292q-21 0 -21 -18 v-568z" />
<glyph unicode="S" horiz-adv-x="995" d="M90 332v129q0 19 7 26t26 7h63q19 0 27 -7.5t8 -25.5v-137q0 -116 63.5 -164.5t184.5 -48.5h55q117 0 184.5 59t67.5 168v16q0 52 -17 95.5t-41.5 74t-70.5 62t-85 51.5t-103 49q-69 30 -116.5 55.5t-94.5 62.5t-75 78t-45 99.5t-17 130.5q0 147 85 240.5t226 93.5 q12 0 35.5 -1t34.5 -1q14 0 42 1t39 1q146 0 227 -89.5t81 -232.5v-127q0 -32 -33 -32q-5 0 -15.5 1t-15.5 1t-16.5 -1t-16.5 -1q-17 0 -24.5 7.5t-7.5 24.5v117q0 112 -57.5 164.5t-172.5 52.5h-51q-229 0 -229 -213v-4q0 -113 63.5 -178t233.5 -143q81 -38 128.5 -64 t100.5 -65t80 -79t45 -98t18 -131q0 -69 -21.5 -133.5t-62 -115.5t-104 -82t-141.5 -31q-14 0 -43.5 1t-40.5 1q-12 0 -42 -1t-42 -1q-152 0 -238 87t-86 251z" />
<glyph unicode="T" horiz-adv-x="849" d="M29 1356q0 5 1 13t1 13t-1 13.5t-1 13.5q0 33 32 33q65 0 196.5 -1t168.5 -1q31 0 164 1t196 1q18 0 25.5 -7.5t7.5 -25.5v-53q0 -18 -7.5 -25.5t-25.5 -7.5h-276q-18 0 -18 -18v-1272q0 -35 -33 -35q-5 0 -16.5 1t-16.5 1t-16.5 -1t-16.5 -1q-33 0 -33 35v1272 q0 18 -18 18h-281q-32 0 -32 33z" />
<glyph unicode="U" horiz-adv-x="1028" d="M131 307q0 83 1 251.5t1 279.5q0 77 -1 276t-1 295q0 18 7.5 25.5t25.5 7.5h65q18 0 25.5 -7.5t7.5 -25.5v-1090q0 -206 219 -206h68q217 0 217 206v1090q0 18 7.5 25.5t25.5 7.5h65q18 0 25.5 -7.5t7.5 -25.5q0 -96 -1 -295t-1 -276q0 -111 1 -279.5t1 -251.5 q0 -133 -79.5 -223t-221.5 -90q-11 0 -40 1t-42 1q-11 0 -40.5 -1t-41.5 -1q-142 0 -221.5 90t-79.5 223z" />
<glyph unicode="V" horiz-adv-x="966" d="M47 1403q-9 39 27 39h71q16 0 24.5 -8t12.5 -29q2 -12 205 -821q80 -316 92 -420q0 -6 4 -6q6 0 6 6q8 95 93 420q19 86 68 284.5t90.5 362t43.5 174.5q8 37 39 37h72q34 0 25 -39q-341 -1337 -347 -1366q-6 -22 -16 -30.5t-27 -8.5q-6 0 -23.5 1t-23.5 1t-23 -1t-22 -1 q-19 0 -29 8.5t-14 30.5z" />
<glyph unicode="W" horiz-adv-x="1495" d="M66 1403q-6 39 28 39h68q34 0 39 -37q1 -5 27.5 -155.5t55 -314.5t33.5 -198q103 -581 105 -620q0 -9 7 -9t7 9q4 56 96 624l105 666q3 19 12 27t29 8h141q20 0 29 -8t12 -27q54 -354 105 -666q92 -568 96 -624q0 -9 7 -9t7 9q2 28 18.5 127t44.5 260.5t40 232.5 q5 34 34 198t56 314.5t28 155.5q3 20 11.5 28.5t27.5 8.5h66q35 0 29 -39l-246 -1366q-6 -39 -43 -39q-4 0 -34 1t-34 1q-5 0 -36 -1t-36 -1q-37 0 -43 39q-11 59 -66 371.5t-63 365.5q-25 142 -49 322t-24 227q0 10 -8 10q-9 0 -9 -10q0 -46 -23.5 -222t-47.5 -327 q-7 -45 -66.5 -382t-62.5 -355q-6 -39 -45 -39q-5 0 -36 1t-36 1q-4 0 -33.5 -1t-34.5 -1q-35 0 -41 39z" />
<glyph unicode="X" horiz-adv-x="935" d="M43 11q-6 13 2 28q106 214 336 680q6 9 0 18q-116 230 -330 668q-7 15 -1.5 26t20.5 11h73q34 0 47 -33q150 -307 164 -340q100 -217 105 -229q6 -15 10 -15t10 15q30 71 105 229l164 340q13 33 47 33h73q15 0 20.5 -11t-1.5 -26q-226 -459 -332 -668q-3 -9 0 -18 q44 -88 164.5 -331.5t173.5 -348.5q8 -15 2 -28t-23 -13q-3 0 -17 1t-17 1q-4 0 -19 -1t-18 -1q-19 0 -30 9.5t-21 29.5q-4 9 -82 167t-84 173q-74 155 -105 237q-6 15 -10 15t-10 -15q-51 -125 -107 -237q-6 -15 -83 -173t-81 -167q-10 -20 -21 -29.5t-30 -9.5q-3 0 -18 1 t-19 1q-3 0 -17 -1t-17 -1q-17 0 -23 13z" />
<glyph unicode="Y" horiz-adv-x="923" d="M39 1401q-13 41 29 41h61q19 0 29 -8.5t16 -30.5q2 -7 80 -231t90 -261q76 -224 109 -331q5 -21 10 -21q2 0 10 21q30 104 107 331q12 37 90 261t80 231q13 39 45 39h63q19 0 26 -11t1 -30q-24 -71 -183.5 -520.5t-162.5 -458.5q-7 -25 -7 -39v-350q0 -35 -32 -35 q-5 0 -18.5 1t-18.5 1t-18.5 -1t-18.5 -1q-33 0 -33 35v350q0 20 -8 39z" />
<glyph unicode="Z" horiz-adv-x="911" d="M57 51v41q0 34 21 74l522 981q54 102 94 164q5 6 3 10.5t-9 3.5q-43 -4 -170 -4h-416q-18 0 -25 7.5t-7 25.5v55q0 18 7 25.5t25 7.5q58 0 187 -1t164 -1q38 0 169 1t164 1q54 0 54 -51v-35q0 -35 -17 -68l-528 -991q-21 -40 -57 -101.5t-39 -68.5q-4 -8 8 -8q49 2 180 2 h438q33 0 33 -33q0 -5 -1 -14.5t-1 -14.5q0 -4 1 -13t1 -13q0 -35 -33 -35q-62 0 -192 1t-172 1q-37 0 -174 -1t-174 -1q-56 0 -56 53z" />
<glyph unicode="[" horiz-adv-x="512" d="M139 -254q0 133 1 535.5t1 435.5q0 37 -1 445.5t-1 525.5q0 30 31 30l52 -1q52 -1 75 -1q20 0 53 0.5t59 1t27 0.5q29 0 29 -30v-48q0 -28 -29 -28h-168q-12 0 -12 -13v-1763q0 -12 12 -12h168q29 0 29 -29v-49q0 -14 -8 -22.5t-21 -8.5q-1 0 -26.5 0.5t-58 1t-52.5 0.5 q-23 0 -76 -1l-53 -1q-14 0 -22.5 8.5t-8.5 22.5z" />
<glyph unicode="\" horiz-adv-x="618" d="M80 1407q-9 35 24 35h48q19 0 28 -6t13 -23l163 -657q13 -57 89 -355.5t94 -363.5q9 -39 -27 -39q-3 0 -11.5 1t-11.5 1q-4 0 -10.5 -1t-11.5 -1q-19 0 -28 7t-13 26l-182 725q-7 28 -80 315t-84 336z" />
<glyph unicode="]" horiz-adv-x="509" d="M47 -205q0 29 29 29h168q12 0 12 12v1763q0 11 -12 11h-168q-29 0 -29 28v50q0 30 29 30q1 0 26.5 -0.5t58 -1t52.5 -0.5q23 0 76 1l53 1q31 0 31 -30q0 -133 -1 -534.5t-1 -434.5q0 -38 1 -447t1 -526q0 -31 -31 -31q-2 0 -26 0.5t-54.5 1t-48.5 0.5q-20 0 -52.5 -0.5 t-58 -1t-26.5 -0.5q-29 0 -29 31v49z" />
<glyph unicode="^" horiz-adv-x="1011" d="M119 578q305 823 311 835q10 29 37 29q11 0 23 -1t18 -1q7 0 19 1t20 1q25 0 37 -29l311 -835q6 -17 -1 -28t-22 -11q-4 0 -13 1t-15 1q-2 0 -10 -1t-13 -1q-31 0 -41 32l-264 744q-3 10 -8 10t-8 -10l-267 -744q-10 -32 -40 -32q-4 0 -11.5 1t-11.5 1q-5 0 -14.5 -1 t-14.5 -1q-15 0 -21.5 11t-0.5 28z" />
<glyph unicode="_" horiz-adv-x="1150" d="M86 33v43q0 33 33 33q7 0 99.5 -0.5t203 -1.5t160.5 -1q47 0 165 1t186 2t101 0q33 0 33 -33v-43q0 -35 -33 -35q-6 0 -94.5 0.5t-197 1t-160.5 0.5q-50 0 -161 -0.5t-203.5 -1t-98.5 -0.5q-33 0 -33 35z" />
<glyph unicode="`" horiz-adv-x="487" d="M111 1756.5q7 15.5 28 15.5h58q23 0 34.5 -8t20.5 -31l102 -254q6 -14 0.5 -23.5t-18.5 -9.5h-35q-25 0 -43 29l-143 249q-11 17 -4 32.5z" />
<glyph unicode="a" horiz-adv-x="923" d="M78 301v4q0 133 72.5 212.5t240.5 135.5q234 78 250 86q26 9 34.5 22.5t8.5 47.5v59q0 193 -174 193h-92q-91 0 -140 -50.5t-49 -144.5v-37q0 -17 -7.5 -24.5t-24.5 -7.5h-60q-33 0 -33 32v37q0 137 76.5 220t208.5 83q12 0 38.5 -1t39.5 -1q11 0 36 1t32 1 q74 0 127.5 -24t84 -67t44.5 -96t14 -118q0 -54 -1 -176.5t-1 -169.5q0 -32 1 -196.5t1 -278.5q0 -45 -43 -45q-44 0 -120 1t-83 1t-62 -1t-87 -1q-159 0 -245.5 84t-86.5 219zM203 307q0 -86 54 -141t157 -55h250q18 0 18 18v477q0 28 -29 19l-258 -84 q-105 -35 -148.5 -91.5t-43.5 -136.5v-6z" />
<glyph unicode="b" horiz-adv-x="933" d="M125 41q0 83 1 320.5t1 314.5q0 115 -1 413.5t-1 319.5q0 33 31 33h61q33 0 33 -33v-225q0 -19 20 -19q1 0 50.5 -1t78.5 -1q27 0 79 1t57 1h8q133 0 207 -69q76 -71 77 -205q0 -83 -1 -151t-1 -171q0 -41 1 -134.5t1 -162.5q0 -132 -77 -204q-76 -71 -214 -70h-4 q-27 0 -91 1t-83 1q-31 0 -95 -1t-93 -1q-45 0 -45 43zM250 131q0 -18 18 -18h252q87 0 134.5 42t47.5 126v606q0 83 -47.5 124.5t-134.5 41.5h-252q-18 0 -18 -19v-903z" />
<glyph unicode="c" horiz-adv-x="909" d="M109 293q0 51 1 146.5t1 150.5q0 50 -1 141t-1 141q0 140 74 218.5t208 78.5q7 0 36 -1t38 -1q10 0 40.5 1t35.5 1q134 0 206 -78t72 -219v-67q0 -33 -33 -33q-6 0 -15.5 1t-14.5 1t-15 -1t-16 -1q-33 0 -33 33v65q0 191 -172 191h-110q-87 0 -132 -49.5t-45 -141.5v-573 q0 -93 46 -143t133 -50h108q88 0 132 49.5t44 143.5v88q0 33 33 33q6 0 16.5 -1t14.5 -1q5 0 16 1t17 1q17 0 23.5 -7.5t6.5 -25.5v-92q0 -140 -74 -219.5t-208 -79.5q-6 0 -34.5 1t-41.5 1q-11 0 -39.5 -1t-34.5 -1q-136 0 -209 78t-73 221z" />
<glyph unicode="d" horiz-adv-x="933" d="M109 272q0 69 1 162.5t1 134.5q0 103 -1 171t-1 151q0 134 76 205q74 69 208 69h8t55.5 -1t78.5 -1q29 0 78.5 1t52.5 1q20 0 20 19v225q0 33 31 33h61q33 0 33 -33q0 -21 -1 -319.5t-1 -413.5q0 -77 1 -314.5t1 -320.5q0 -43 -45 -43q-29 0 -94 1t-97 1q-19 0 -82.5 -1 t-91.5 -1h-4q-139 0 -213 70q-76 72 -75 204zM233 281q0 -84 47.5 -126t133.5 -42h252q20 0 20 18v903q0 19 -20 19h-252q-87 0 -134 -41.5t-47 -124.5v-606z" />
<glyph unicode="e" horiz-adv-x="913" d="M109 293q0 43 1 139.5t1 153.5q0 53 -1 156t-1 145q0 123 68 202.5t198 79.5q15 0 45 -1t43 -1q11 0 40.5 1t43.5 1q132 0 198 -79t66 -203v-277q0 -57 -61 -57h-500q-21 0 -21 -18v-242q0 -91 46 -141t133 -50h108q172 0 172 191v67q0 33 33 33h61q31 0 31 -33v-67 q0 -134 -70.5 -216.5t-203.5 -82.5q-7 0 -34 1t-42 1q-11 0 -39 -1t-35 -1q-135 0 -207.5 79t-72.5 220zM229 674q0 -19 21 -19h416q20 0 20 19v213q0 92 -43.5 134t-116.5 42h-133q-75 0 -119.5 -48t-44.5 -128v-213z" />
<glyph unicode="f" horiz-adv-x="610" d="M125 33q2 392 2 659l-2 426q0 169 72.5 245.5t222.5 76.5h135q33 0 33 -31q0 -7 -1 -15t-1 -12q0 -5 1 -12.5t1 -13.5q0 -31 -33 -31h-129q-97 0 -136.5 -46t-39.5 -159v-182q0 -20 20 -20h267q17 0 24.5 -7t7.5 -24v-49q0 -33 -32 -33h-267q-20 0 -20 -21v-751 q0 -35 -33 -35q-6 0 -16 1t-15 1q-4 0 -14 -1t-16 -1q-31 0 -31 35z" />
<glyph unicode="g" horiz-adv-x="935" d="M109 281q0 71 1 138t1 173q0 44 -1 140.5t-1 162.5q0 132 77 202q74 68 209 68h8q23 0 72 -1t70 -1q18 0 96 1t125 1q45 0 45 -43q0 -83 -1 -369.5t-1 -363.5q0 -111 1 -267.5t1 -197.5q0 -129 -73 -200.5t-216 -71.5h-145q-33 0 -33 31v55q0 31 33 31h135q91 0 132.5 45 t41.5 118v50q0 20 -20 20q-1 0 -50.5 1t-78.5 1q-27 0 -79 -1t-57 -1q-145 0 -218.5 71t-73.5 208zM233 283q0 -82 48 -124t135 -42h252q18 0 18 20v895q0 19 -18 19h-252q-183 0 -183 -164v-604z" />
<glyph unicode="h" horiz-adv-x="954" d="M125 33q0 159 1 384t1 281q0 65 -1 309.5t-1 403.5q0 31 33 31h59q33 0 33 -31v-227q0 -21 20 -21q12 0 140 1t147 1h4q135 0 205 -68q70 -69 70 -202q0 -72 -1 -192.5t-1 -163.5q0 -109 1 -278.5t1 -227.5q0 -35 -33 -35q-4 0 -14.5 1t-14.5 1q-2 0 -14 -1t-17 -1 q-32 0 -32 35v852q0 168 -168 168h-273q-20 0 -20 -19v-1001q0 -35 -33 -35q-4 0 -14 1t-15 1t-15.5 -1t-14.5 -1q-33 0 -33 35z" />
<glyph unicode="i" horiz-adv-x="372" d="M125 33q2 321 2 559l-2 541q0 32 33 32h61q33 0 33 -32q-2 -270 -2 -541l2 -559q0 -35 -33 -35q-6 0 -16 1t-15 1t-14.5 -1t-15.5 -1q-33 0 -33 35zM125 1272v137q0 33 33 33h61q33 0 33 -33v-137q0 -33 -33 -33h-61q-33 0 -33 33z" />
<glyph unicode="j" horiz-adv-x="374" d="M70 -211l45 125q10 39 10 94q0 17 1 225t1 340q0 82 -1 236t-2 223v43q0 37 1 58q0 17 7 24.5t24 7.5h63q17 0 24 -7.5t7 -24.5q0 -8 -0.5 -93t-1 -216t-0.5 -251q0 -94 0.5 -228t1 -234.5t0.5 -112.5q0 -59 -17 -111q-43 -131 -47 -143q-11 -38 -45 -23l-26 13l-31 12 q-25 8 -14 43zM125 1272v137q0 33 31 33h63q31 0 31 -33v-137q0 -33 -31 -33h-63q-31 0 -31 33z" />
<glyph unicode="k" horiz-adv-x="894" d="M123 31q0 13 2 271t2 411q0 145 -2 418t-2 278q0 33 31 33h61q31 0 31 -33v-760q0 -6 5 -8t9 4q46 56 84 96l363 404q17 20 47 20h67q17 0 23 -13.5t-6 -25.5q-371 -422 -381 -436q-13 -16 -2 -35l415 -618q9 -12 3 -25.5t-21 -13.5q-2 0 -15.5 1t-15.5 1q-5 0 -15 -1 t-11 -1q-39 0 -58 31q-291 415 -309 448q-42 63 -66 101q-5 8 -10 8q-6 0 -12 -6l-84 -103q-10 -13 -10 -37v-407q0 -35 -31 -35q-6 0 -16 1t-15 1q-4 0 -14 -1t-16 -1q-31 0 -31 33z" />
<glyph unicode="l" horiz-adv-x="473" d="M127 313q0 9 1 187.5t1 267.5q0 158 -1 399t-1 242q0 33 33 33h61q31 0 31 -33q0 -30 -1 -325.5t-1 -309.5q0 -12 1 -228.5t1 -230.5q0 -121 32.5 -159.5t133.5 -38.5q33 0 33 -33v-51q0 -33 -33 -33h-23q-156 0 -212 65.5t-56 247.5z" />
<glyph unicode="m" horiz-adv-x="1341" d="M123 33q0 99 1 287t1 260q0 69 -1 262.5t-1 281.5q0 41 47 41q98 0 274 -1t209 -1q37 0 130 1t167 1q138 0 204.5 -67.5t66.5 -202.5q0 -77 -1 -177t-1 -157v-528q0 -35 -31 -35q-6 0 -16 1t-15 1t-16 -1t-17 -1q-30 0 -30 35v856q0 85 -40.5 125.5t-123.5 40.5h-176 q-21 0 -21 -21v-1001q0 -35 -33 -35q-6 0 -14.5 1t-13.5 1q-4 0 -13 -1t-16 -1q-33 0 -33 33l2 516l-2 465q0 43 -43 43h-297q-20 0 -20 -21v-1001q0 -35 -33 -35q-6 0 -16 1t-15 1q-4 0 -14 -1t-16 -1q-33 0 -33 35z" />
<glyph unicode="n" horiz-adv-x="954" d="M123 33q0 41 1 237.5t1 292.5t-1 310t-1 251q0 41 47 41q22 0 95 -1t95 -1t96.5 1t98.5 1h6q273 0 273 -272q0 -67 -1.5 -193t-1.5 -165q0 -127 1.5 -291t1.5 -211q0 -35 -31 -35q-6 0 -16 1t-15 1t-15 -1t-16 -1q-32 0 -32 35v856q0 83 -40.5 123.5t-125.5 40.5h-275 q-20 0 -20 -19v-1001q0 -35 -31 -35q-6 0 -16 1t-15 1t-14.5 -1t-15.5 -1q-33 0 -33 35z" />
<glyph unicode="o" horiz-adv-x="927" d="M109 293q0 41 1 139.5t1 155.5q0 54 -1 148t-1 136q0 140 74 218.5t208 78.5q5 0 32 -1t40 -1q14 0 42 1t32 1q136 0 210 -78.5t74 -218.5q0 -42 -1 -136t-1 -148q0 -57 1 -155.5t1 -139.5q0 -141 -74 -220t-210 -79q-5 0 -34 1t-38 1q-6 0 -36.5 -1t-37.5 -1 q-134 0 -208 79.5t-74 219.5zM233 295q0 -91 45 -140t132 -49h108q87 0 132.5 49t45.5 140v573q0 93 -45.5 142t-132.5 49h-108q-87 0 -132 -49t-45 -142v-573z" />
<glyph unicode="p" horiz-adv-x="933" d="M125 -252q0 23 1 324t1 415q0 78 -1 315t-1 320q0 43 45 43q42 0 123 -1t98 -1q19 0 67 1t74 1h8q135 0 210 -69q77 -71 77 -203q0 -71 -1 -163t-1 -128q0 -101 1 -171.5t1 -154.5q0 -134 -77 -207q-74 -71 -208 -71h-7q-5 0 -57.5 1t-80.5 1q-29 0 -77.5 -1t-49.5 -1 q-20 0 -20 -18v-232q0 -33 -33 -33q-6 0 -16 1t-15 1t-14.5 -1t-15.5 -1q-31 0 -31 33zM250 133q0 -18 18 -18h252q87 0 134.5 40.5t47.5 123.5v606q0 166 -182 166h-252q-18 0 -18 -19v-899z" />
<glyph unicode="q" horiz-adv-x="933" d="M109 276q0 77 1 146t1 174q0 39 -1 134.5t-1 162.5q0 132 75 203q75 69 213 69h4q24 0 73 -1t69 -1q19 0 97 1t126 1q45 0 45 -43q0 -83 -1 -320t-1 -315q0 -110 1 -404.5t1 -334.5q0 -33 -33 -33q-6 0 -15.5 1t-14.5 1q-4 0 -14 -1t-17 -1q-31 0 -31 33v232q0 18 -20 18 q-3 0 -51.5 1t-77.5 1t-80.5 -1t-55.5 -1h-7q-135 0 -209 70q-76 73 -76 208zM233 279q0 -82 47 -123t134 -41h252q20 0 20 18v899q0 19 -20 19h-252q-86 0 -133.5 -41t-47.5 -125v-606z" />
<glyph unicode="r" horiz-adv-x="628" d="M121 33q0 51 1 196t1 285q0 70 -1 172.5t-1 179.5q0 157 72 228t213 71h157q18 0 25.5 -6.5t7.5 -23.5q0 -7 -1 -15t-1 -12q0 -5 1 -12t1 -13q0 -17 -7.5 -23.5t-25.5 -6.5h-143q-174 0 -174 -193v-827q0 -35 -31 -35q-6 0 -17 1t-16 1q-4 0 -14 -1t-16 -1q-31 0 -31 35z " />
<glyph unicode="s" horiz-adv-x="878" d="M86 299v90q0 33 33 33q6 0 15.5 -1t12.5 -1q5 0 15 1t16 1q31 0 31 -33v-90q0 -91 47.5 -144t142.5 -53h103q85 0 130.5 50.5t47.5 128.5v8q0 47 -18 83t-63.5 67.5t-76 46.5t-101.5 46q-3 2 -5.5 3t-5.5 2q-133 58 -184 94q-122 88 -126 240v12q0 124 72 205t199 81 q7 0 30 -1t31 -1q7 0 30 1t30 1q135 0 207.5 -79.5t72.5 -223.5v-67q0 -33 -31 -33h-57q-31 0 -31 33v69q-2 96 -48 146.5t-136 50.5h-76q-83 0 -126.5 -47t-45.5 -121v-14q0 -39 13.5 -71.5t34 -54.5t56 -44t66 -36.5t77.5 -34.5q6 -2 9 -3.5t8 -3.5t9 -4q60 -26 99 -46.5 t82.5 -51.5t68 -63.5t41 -79.5t16.5 -103q0 -127 -73.5 -210t-203.5 -83q-9 0 -39.5 1t-38.5 1t-37 -1t-36 -1q-137 0 -212 79.5t-75 225.5z" />
<glyph unicode="t" horiz-adv-x="634" d="M119 309q0 16 1 185t1 264q0 151 -1 398.5t-1 250.5q0 35 31 35h63q31 0 31 -35v-223q0 -21 20 -21h281q18 0 25.5 -6.5t7.5 -23.5q0 -6 -1.5 -14t-1.5 -13t1.5 -11t1.5 -12q0 -32 -33 -32h-281q-20 0 -20 -19v-713q0 -119 44 -160.5t132 -41.5h123q17 0 24.5 -7t7.5 -24 v-53q0 -33 -32 -33h-133q-148 0 -219.5 75t-71.5 234z" />
<glyph unicode="u" horiz-adv-x="954" d="M121 270q0 67 1 193.5t1 165.5q0 127 -1 292t-1 212q0 32 33 32h61q17 0 24 -7.5t7 -24.5v-857q0 -84 41 -123.5t125 -39.5h274q21 0 21 18v1002q0 17 7.5 24.5t24.5 7.5h62q17 0 23.5 -7t6.5 -25q0 -41 -1 -239t-1 -294q0 -95 1 -308.5t1 -250.5q0 -43 -45 -43 q-22 0 -96 1t-96 1t-96.5 -1t-98.5 -1h-6q-272 0 -272 272z" />
<glyph unicode="v" horiz-adv-x="843" d="M43 1126q-4 19 4 29t23 10h59q18 0 26.5 -7t12.5 -25q16 -57 88 -333.5t90 -350.5q60 -244 68 -304q0 -7 8 -7t8 7q2 23 8.5 56t13 60.5t21.5 86.5t25 101q15 63 93 363.5t83 320.5q8 32 39 32h61q15 0 23 -10t4 -29q-291 -1095 -293 -1099q-6 -29 -31 -29q-6 0 -27 1 t-28 1t-27 -1t-26 -1q-27 0 -33 29z" />
<glyph unicode="w" horiz-adv-x="1378" d="M53 1130q-6 35 27 35h63q30 0 33 -26q14 -62 98 -504t88 -500q0 -9 10.5 -9t10.5 9q4 41 53 269t104 471t58 260q6 28 33 28h119q28 0 34 -28q3 -17 58 -260t104 -471t53 -269q0 -9 10.5 -9t10.5 9q4 58 88 500t98 504q3 26 33 26h64q30 0 24 -35q-213 -1068 -219 -1093 q-3 -21 -11.5 -30t-27.5 -9q-9 0 -31.5 1t-25.5 1q-5 0 -32 -1t-32 -1q-29 0 -35 35q-35 145 -123.5 542.5t-91.5 466.5q0 6 -8 6t-8 -6q-1 -37 -34.5 -199t-71.5 -330.5t-73 -321.5t-36 -158q-6 -35 -35 -35q-7 0 -33.5 1t-29.5 1q-4 0 -27.5 -1t-28.5 -1q-21 0 -29.5 9 t-11.5 30z" />
<glyph unicode="x" horiz-adv-x="858" d="M46.5 9q-6.5 11 0.5 24q43 78 148.5 275.5t148.5 275.5q3 8 0 16q-53 95 -162.5 296t-130.5 239q-6 12 -0.5 21t19.5 9h73q28 0 39 -24q140 -250 152 -277q22 -40 88 -170q2 -10 8 -10q3 0 8 10q34 72 88 170l150 277q13 24 41 24h74q13 0 18.5 -9t-0.5 -21 q-50 -88 -151.5 -275.5t-141.5 -259.5q-5 -8 0 -16q284 -527 297 -551q6 -13 0 -24t-20 -11q-3 0 -18 1t-19 1q-3 0 -18 -1t-17 -1q-27 0 -45 29q-3 6 -74 134.5t-76 141.5q-53 101 -88 180q-7 11 -8 11q-4 0 -8 -11q-35 -79 -88 -180q-18 -42 -152 -276q-14 -29 -43 -29 q-3 0 -18.5 1t-18.5 1q-4 0 -17.5 -1t-16.5 -1q-15 0 -21.5 11z" />
<glyph unicode="y" horiz-adv-x="954" d="M121 274q0 62 1 188t1 169q0 112 -1 291t-1 211t33 32h61q17 0 24 -7.5t7 -24.5v-852q0 -85 42 -125.5t128 -40.5h272q19 0 19 20v998q0 18 6.5 25t23.5 7h62q17 0 24.5 -7.5t7.5 -24.5q0 -39 -1 -236t-1 -295v-551q0 -65 -16 -114q-2 -8 -13 -40t-22.5 -65.5t-22 -63 t-10.5 -30.5q-12 -30 -40 -17l-29 13l-29 10q-28 8 -18 39q67 186 71 194q7 23 -14 23h-149q-14 0 -67 -1t-71 -1h-4q-135 0 -204 70q-70 72 -70 206z" />
<glyph unicode="z" horiz-adv-x="843" d="M61 41v41q0 32 17 59l493 803q8 16 33 54.5t27 41.5q7 11 -4 11q-41 -2 -111 -2h-414q-17 0 -24.5 7.5t-7.5 24.5v54q0 17 7 23.5t25 6.5q17 0 165.5 -1t152.5 -1q14 0 149 1t158 1q47 0 47 -41v-45q0 -29 -16 -55l-490 -797l-65 -104q-7 -10 4 -10q86 4 115 4h432 q32 0 32 -33q0 -6 -1 -13.5t-1 -11.5q0 -5 1 -13.5t1 -14.5q0 -33 -32 -33q-20 0 -173.5 1t-160.5 1q-15 0 -153 -1t-161 -1q-45 0 -45 43z" />
<glyph unicode="{" horiz-adv-x="538" d="M102 219q0 57 21.5 113t47.5 91.5t47.5 76.5t21.5 73q0 39 -20 58.5t-68 19.5q-31 0 -31 29v86q0 29 31 29q88 0 88 77q0 33 -21.5 74t-47.5 77t-47.5 91.5t-21.5 112.5q0 104 69 166.5t187 62.5h86q23 0 23 -20q0 -9 -1 -16.5t-1 -10.5q0 -4 1 -12.5t1 -12.5 q0 -22 -23 -22h-79q-69 0 -108.5 -38t-39.5 -97q0 -44 22.5 -96t49 -91t49 -87t22.5 -87q0 -63 -35.5 -101t-95.5 -38q-3 0 -3 -3t3 -3q59 0 95 -39.5t36 -101.5q0 -38 -22.5 -86t-49 -87t-49 -91t-22.5 -97q0 -58 40 -96.5t108 -38.5h79q23 0 23 -21q0 -7 -1 -14t-1 -10 q0 -5 1 -12t1 -15q0 -22 -23 -22h-86q-117 0 -186.5 63.5t-69.5 165.5z" />
<glyph unicode="|" horiz-adv-x="382" d="M136.5 1273q-0.5 90 0.5 136q0 35 33 35q5 0 11.5 -1t11.5 -1q4 0 11.5 1t12.5 1q33 0 33 -35q0 -3 -0.5 -127t-1 -288t-0.5 -263q0 -87 0.5 -256t1 -304t0.5 -138q0 -35 -33 -35q-5 0 -12.5 1t-11.5 1q-5 0 -11.5 -1t-11.5 -1q-33 0 -33 35q0 3 0.5 138t1 304t0.5 256 q0 88 -1 270t-1.5 272z" />
<glyph unicode="}" horiz-adv-x="536" d="M72 12q0 8 1 15t1 12q0 3 -1 10t-1 14q0 21 22 21h80q68 0 108 38.5t40 96.5q0 45 -22.5 97t-49.5 91t-49.5 87t-22.5 86q0 62 36 101.5t95 39.5q3 0 3 3t-3 3q-60 0 -95.5 38t-35.5 101q0 39 22.5 87t49.5 87t49.5 90.5t22.5 96.5q0 59 -39.5 97t-108.5 38h-80 q-22 0 -22 22q0 4 1 12.5t1 12.5q0 3 -1 10.5t-1 16.5q0 20 22 20h86q118 0 187 -62.5t69 -166.5q0 -57 -21.5 -112.5t-47 -91.5t-47 -77t-21.5 -74q0 -77 88 -77q31 0 31 -29v-86q0 -29 -31 -29q-48 0 -68 -19.5t-20 -58.5q0 -32 21.5 -73t47 -76.5t47 -91.5t21.5 -113 q0 -102 -69.5 -165.5t-186.5 -63.5h-86q-22 0 -22 22z" />
<glyph unicode="~" horiz-adv-x="831" d="M109 561q0 92 43 142.5t127 50.5q28 0 58.5 -10.5t46 -19t46.5 -28.5q7 -4 29.5 -18.5t31 -19.5t24 -13t26.5 -11t22 -3q37 0 51.5 16.5t14.5 63.5q0 19 7 26.5t26 7.5h30q33 0 33 -36q0 -78 -39 -129.5t-113 -51.5q-31 0 -62.5 10.5t-47 19t-52.5 32.5q-7 4 -10 6 q-70 44 -100 51q-15 4 -29 4q-37 0 -51 -22t-14 -70q0 -20 -7 -27.5t-26 -7.5h-33q-17 0 -24.5 8.5t-7.5 28.5z" />
<glyph unicode="&#xa2;" horiz-adv-x="913" d="M100 465q0 43 1 125t1 139q0 53 -1 131.5t-1 120.5q0 142 71 218.5t210 80.5q18 0 18 18v117q0 31 33 31h55q33 0 33 -31v-117q0 -18 21 -18q135 -4 204.5 -79.5t69.5 -213.5v-51q0 -33 -33 -33q-5 0 -15 1t-15 1t-15.5 -1t-15.5 -1q-33 0 -33 33v47q0 186 -172 186h-113 q-87 0 -131.5 -48.5t-44.5 -141.5v-510q0 -93 46 -143t133 -50h110q88 0 133 50t45 143v59q0 31 31 31h63q31 0 31 -31v-63q0 -138 -71 -216t-205 -81q-23 -3 -23 -21v-114q0 -35 -33 -35q-5 0 -14 1t-14 1q-4 0 -13 -1t-14 -1q-33 0 -33 35v114q0 19 -18 19 q-137 4 -209 81.5t-72 217.5z" />
<glyph unicode="&#xa3;" horiz-adv-x="987" d="M96 33v57q3 61 26 130.5t51 124t55.5 125t37.5 128.5q4 14 -10 14h-119q-31 0 -31 33v49q0 31 31 31h119q10 0 10 14q-5 42 -38.5 115.5t-63 153.5t-29.5 147q0 130 78.5 210.5t206.5 80.5q10 0 45 -1t47 -1q7 0 34.5 1t45.5 1q140 0 217.5 -82.5t77.5 -220.5v-99 q0 -18 -7.5 -25t-25.5 -7q-6 0 -17 1t-16 1q-3 0 -13 -1t-17 -1q-19 0 -26 7t-7 25v64q0 118 -45 171.5t-172 53.5h-58q-112 0 -164.5 -47t-52.5 -129v-6q0 -58 25.5 -125t58 -144t43.5 -143q5 -14 21 -14h237q35 0 35 -31q0 -8 -1 -13.5t-1 -8.5q0 -4 1 -13.5t1 -13.5 q0 -33 -35 -33h-239q-15 0 -19 -16q-15 -79 -54.5 -175t-70 -170t-30.5 -114q0 -18 16 -18h606q31 0 31 -31v-57q0 -33 -31 -33q-60 0 -189.5 1t-166.5 1q-32 0 -182 -1t-191 -1q-35 0 -35 35z" />
<glyph unicode="&#xa5;" horiz-adv-x="1024" d="M86 1401q-6 19 1 30t26 11h65q16 0 26 -7.5t17 -29.5q1 -4 41 -103.5t81.5 -204.5t49.5 -128q27 -70 109 -287q9 -24 18 0l111 287q8 23 49.5 128t81.5 204.5t41 103.5q9 23 18 30t27 7h63q19 0 27 -11t2 -30l-324 -783q-3 -10 5 -10h241q31 0 31 -30v-39q0 -33 -31 -33 h-266q-10 0 -10 -10l-4 -146q0 -12 12 -12h268q31 0 31 -33v-39q0 -33 -31 -33h-270q-12 0 -12 -12v-188q0 -35 -31 -35q-6 0 -18.5 1t-18.5 1q-5 0 -17 -1t-18 -1q-33 0 -33 35v188q0 12 -12 12h-270q-31 0 -31 33q0 4 1 10t1 9q0 4 -1 10t-1 10q0 33 31 33h268q12 0 12 12 l-2 146q0 10 -12 10h-266q-31 0 -31 33q0 4 1 9.5t1 8.5q0 4 -1 10t-1 11q0 30 31 30h241q10 0 7 10z" />
<glyph unicode="&#xa8;" horiz-adv-x="751" d="M182 1589v97q0 32 33 32h92q35 0 35 -32v-97q0 -35 -35 -35q-7 0 -24 1t-21 1q-6 0 -22 -1t-25 -1q-33 0 -33 35zM412 1589v97q0 32 34 32h93q34 0 34 -32v-97q0 -35 -34 -35q-7 0 -24 1t-23 1q-4 0 -21 -1t-25 -1q-34 0 -34 35z" />
<glyph unicode="&#xa9;" horiz-adv-x="1390" d="M121 346q0 54 1 180t1 193t-1 195.5t-1 181.5q0 174 75 260t244 86q28 0 91 -0.5t114.5 -1t52.5 -0.5h252q170 0 245 -87t75 -261q0 -55 -1 -182.5t-1 -190.5t1 -191t1 -184q0 -173 -75 -260.5t-245 -87.5q-196 0 -258 4q-17 0 -125 -1t-127 -1q-168 0 -243.5 88 t-75.5 260zM238 340q0 -113 49 -177.5t155 -64.5h504q209 0 209 240v762q0 241 -209 241h-504q-204 0 -204 -239v-762zM453 469v500q0 84 48 140t136 56q6 0 28.5 -1t28.5 -1q7 0 29.5 1t28.5 1q90 0 137 -55.5t47 -142.5v-47q0 -29 -29 -29q-4 0 -11 1t-11 1q-5 0 -12 -1 t-11 -1q-28 0 -28 29v41q0 59 -28 86.5t-87 27.5h-49q-59 0 -88 -27.5t-29 -86.5v-486q0 -115 117 -115h49q121 0 121 115v57q0 29 28 29h47q27 0 27 -29v-63q0 -87 -49.5 -142t-140.5 -55h-115q-90 0 -137 54t-47 143z" />
<glyph unicode="&#xab;" horiz-adv-x="860" d="M70 575v119q0 23 24 23q117 0 169 52.5t34 172.5q-2 11 4 19t18 8h27q25 0 29 -23q8 -41 8 -82q0 -92 -60.5 -155.5t-148.5 -69.5q-8 0 -8 -6t8 -6q89 -8 149 -70t60 -156q0 -38 -8 -77q-7 -25 -29 -25h-27q-11 0 -17 7.5t-5 19.5q18 120 -34 172.5t-169 52.5 q-10 0 -17 6.5t-7 17.5zM430 575v119q0 10 7 16.5t18 6.5q117 0 168.5 52.5t33.5 172.5q-2 11 4.5 19t18.5 8h27q24 0 28 -23q8 -41 8 -82q0 -92 -60 -155.5t-148 -69.5q-9 0 -9 -6t9 -6q89 -8 148.5 -70t59.5 -156q0 -38 -8 -77q-7 -25 -28 -25h-27q-11 0 -17.5 7.5 t-5.5 19.5q18 120 -33.5 172.5t-168.5 52.5q-11 0 -18 7t-7 17z" />
<glyph unicode="&#xad;" horiz-adv-x="854" d="M121 604v53q0 33 33 33l104 -1q103 -1 172 -1q48 0 118 1t99.5 1.5t54.5 -0.5q33 0 33 -33v-53q0 -33 -33 -33q-6 0 -49.5 0.5t-107 1t-115.5 0.5q-50 0 -114 -0.5t-110 -1t-52 -0.5q-33 0 -33 33z" />
<glyph unicode="&#xae;" horiz-adv-x="1390" d="M121 346q0 54 1 180t1 193t-1 195.5t-1 181.5q0 174 75 260t244 86q36 0 141.5 -1t114.5 -1h254q170 0 245 -87t75 -261q0 -55 -1 -182.5t-1 -190.5t1 -191t1 -184q0 -173 -75 -260.5t-245 -87.5q-196 0 -258 4q-17 0 -125 -1t-127 -1q-168 0 -243.5 88t-75.5 260z M238 340q0 -113 49 -177.5t155 -64.5h504q209 0 209 240v762q0 241 -209 241h-504q-204 0 -204 -239v-762zM461 299q0 59 1 206t1 228q0 35 -1 203.5t-1 198.5t33 30h243q92 0 139.5 -48.5t47.5 -137.5q0 -12 -1 -36.5t-1 -31.5q0 -6 1 -29t1 -42q0 -103 -66 -140 q-12 -5 -12 -8q0 -2 12 -8q66 -30 66 -115l-2 -178q0 -29 28 -29q23 0 23 -18q0 -6 -1 -14t-1 -11q0 -4 1 -12.5t1 -13.5q0 -21 -25 -21h-12q-58 0 -83.5 28t-25.5 87v166q0 88 -90 88h-170q-10 0 -10 -10v-332q0 -27 -27 -27h-43q-26 0 -26 27zM557 741q0 -10 10 -10h170 q42 0 66 28.5t24 80.5v141q0 46 -25.5 74t-74.5 28h-160q-10 0 -10 -10v-332z" />
<glyph unicode="&#xb4;" horiz-adv-x="487" d="M150.5 1455q-5.5 9 1.5 24l102 254q7 23 18.5 31t34.5 8h58q21 0 28.5 -15.5t-2.5 -32.5l-145 -249q-15 -29 -41 -29h-35q-14 0 -19.5 9z" />
<glyph unicode="&#xb8;" horiz-adv-x="528" d="M58.5 -217.5q-1.5 8.5 4.5 16.5l189 246l65 -39l-114 -147q-3 -5 -0.5 -8.5t8.5 -2.5q30 9 55 9q67 0 103.5 -37.5t36.5 -110.5v-47q0 -76 -40.5 -119t-109.5 -43h-61q-9 0 -15 6t-6 15v43q0 18 21 18h49q29 0 45 19.5t16 54.5v49q0 39 -22 60.5t-64 21.5q-59 0 -86 -37 q-15 -21 -33 -6l-32 25q-8 5 -9.5 13.5z" />
<glyph unicode="&#xbb;" horiz-adv-x="862" d="M119 401q0 94 60 156t149 70q8 0 8 6t-8 6q-88 6 -148.5 69.5t-60.5 155.5q0 41 8 82q4 23 29 23h26q12 0 18.5 -8t4.5 -19q-18 -121 33 -173t170 -52q24 0 24 -23q0 -17 -1 -37t-1 -24q0 -7 1 -26.5t1 -31.5q0 -11 -7 -17.5t-17 -6.5q-119 0 -170 -52t-33 -173 q1 -12 -5.5 -19.5t-17.5 -7.5h-26q-22 0 -29 25q-8 39 -8 77zM479 401q0 94 60 156t149 70q8 0 8 6t-8 6q-88 6 -148.5 69.5t-60.5 155.5q0 41 8 82q4 23 29 23h27q12 0 18 -8t4 -19q-18 -121 33 -173t170 -52q11 0 18 -6.5t7 -16.5q0 -17 -1 -37t-1 -24q0 -7 1 -26.5 t1 -31.5q0 -10 -7 -17t-18 -7q-119 0 -170 -52t-33 -173q1 -12 -5 -19.5t-17 -7.5h-27q-22 0 -29 25q-8 39 -8 77z" />
<glyph unicode="&#xd3;" horiz-adv-x="1003" d="M119 307q0 77 1 201t1 211q0 83 -1 208t-1 206q0 133 79.5 223t219.5 90q10 0 41 -1t43 -1t43 1t41 1q140 0 219.5 -90t79.5 -223q0 -81 -1 -206t-1 -208q0 -87 1 -211t1 -201q0 -133 -79.5 -223t-219.5 -90q-10 0 -41 1t-43 1q-4 0 -38.5 -1t-45.5 -1q-140 0 -219.5 90 t-79.5 223zM250 317q0 -206 217 -206h68q219 0 219 206v803q0 209 -217 209h-70q-217 0 -217 -209v-803zM463.5 1545q-5.5 9 1.5 24l102 254q7 23 18.5 31t35.5 8h57q21 0 29 -15t-2 -32l-146 -250q-15 -29 -41 -29h-35q-14 0 -19.5 9z" />
<glyph unicode="&#xf3;" horiz-adv-x="927" d="M109 293q0 41 1 139.5t1 155.5q0 54 -1 148t-1 136q0 140 74 218.5t208 78.5q5 0 32 -1t40 -1q14 0 42 1t32 1q136 0 210 -78.5t74 -218.5q0 -42 -1 -136t-1 -148q0 -57 1 -155.5t1 -139.5q0 -141 -74 -220t-210 -79q-5 0 -34 1t-38 1q-6 0 -36.5 -1t-37.5 -1 q-134 0 -208 79.5t-74 219.5zM233 295q0 -91 45 -140t132 -49h108q87 0 132.5 49t45.5 140v573q0 93 -45.5 142t-132.5 49h-108q-87 0 -132 -49t-45 -142v-573zM418.5 1287q-5.5 9 1.5 24l102 254q7 23 18.5 31t34.5 8h58q21 0 28.5 -15.5t-2.5 -32.5l-145 -249 q-15 -29 -41 -29h-35q-14 0 -19.5 9z" />
<glyph unicode="&#x104;" horiz-adv-x="958" d="M47 39q342 1341 348 1368q8 35 41 35h86q35 0 43 -35l348 -1368q5 -18 -2 -29.5t-24 -11.5q-2 0 -7 1t-8 1q-66 -12 -87.5 -37.5t-10.5 -68.5l12 -52q13 -51 52 -59.5t104 14.5q25 6 33 -22l10 -41q7 -24 -20 -31l-50 -12q-193 -44 -231 123l-10 53q-28 130 104 170v2 q-44 174 -69 272q-6 25 -27 25h-403q-23 0 -29 -25l-70 -272q-5 -23 -12.5 -32t-24.5 -9q-10 0 -20.5 1t-13.5 1q-5 0 -17.5 -1t-17.5 -1q-17 0 -24.5 11.5t-2.5 29.5zM287 471q-3 -9 2 -14.5t14 -5.5h354q9 0 13.5 5.5t1.5 14.5q-1 6 -49 192.5t-50 202.5 q-53 215 -69.5 291t-20.5 129q0 6 -4 6t-4 -6q-6 -72 -79 -381l-9 -39z" />
<glyph unicode="&#x105;" horiz-adv-x="923" d="M78 301v4q0 133 72.5 212.5t240.5 135.5q234 78 250 86q26 9 34.5 22.5t8.5 47.5v59q0 193 -174 193h-92q-91 0 -140 -50.5t-49 -144.5v-37q0 -17 -7.5 -24.5t-24.5 -7.5h-60q-33 0 -33 32v37q0 137 76.5 220t208.5 83q12 0 38.5 -1t39.5 -1q11 0 36 1t32 1 q74 0 127.5 -24t84 -67t44.5 -96t14 -118q0 -54 -1 -176.5t-1 -169.5q0 -32 1 -196.5t1 -278.5q0 -34 -27 -43q0 -2 -2 -4q-72 -10 -95.5 -36t-12.5 -71l12 -51q13 -51 52 -59.5t104 14.5q24 6 32 -22l11 -41q3 -10 -3 -19t-18 -12l-49 -12q-193 -44 -231 123l-11 53 q-20 87 39 137h-47q-7 0 -62 -1t-87 -1q-159 0 -245.5 84t-86.5 219zM203 307q0 -86 54 -141t157 -55h250q18 0 18 18v477q0 28 -29 19l-258 -84q-105 -35 -148.5 -91.5t-43.5 -136.5v-6z" />
<glyph unicode="&#x106;" d="M121 309q0 96 1 196t1 212q0 78 -1 211.5t-1 204.5q0 135 76 224t217 89q12 0 45 -1t43 -1q12 0 46 1t44 1q141 0 216 -89.5t75 -226.5v-98q0 -33 -33 -33q-5 0 -16.5 1t-16.5 1t-16.5 -1t-16.5 -1q-32 0 -32 33v88q0 108 -50.5 158.5t-158.5 50.5h-80q-109 0 -161 -50 t-52 -159v-803q0 -106 52.5 -156t160.5 -50h82q217 0 217 206v121q0 33 33 33q5 0 16 -1t16 -1t16.5 1t16.5 1q33 0 33 -33v-129q0 -136 -79.5 -225.5t-221.5 -89.5q-10 0 -44 1t-46 1t-44 -1t-44 -1q-141 0 -217 88.5t-76 226.5zM457.5 1524.5q-5.5 8.5 1.5 23.5l102 254 q7 23 18.5 31t34.5 8h58q21 0 28.5 -15t-2.5 -32l-145 -250q-15 -28 -41 -28h-35q-14 0 -19.5 8.5z" />
<glyph unicode="&#x107;" horiz-adv-x="909" d="M109 293q0 51 1 146.5t1 150.5q0 50 -1 141t-1 141q0 140 74 218.5t208 78.5q7 0 36 -1t38 -1q10 0 40.5 1t35.5 1q134 0 206 -78t72 -219v-67q0 -33 -33 -33q-6 0 -15.5 1t-14.5 1t-15 -1t-16 -1q-33 0 -33 33v65q0 191 -172 191h-110q-87 0 -132 -49.5t-45 -141.5v-573 q0 -93 46 -143t133 -50h108q88 0 132 49.5t44 143.5v88q0 33 33 33q6 0 16.5 -1t14.5 -1q5 0 16 1t17 1q17 0 23.5 -7.5t6.5 -25.5v-92q0 -140 -74 -219.5t-208 -79.5q-6 0 -34.5 1t-41.5 1q-11 0 -39.5 -1t-34.5 -1q-136 0 -209 78t-73 221zM422.5 1268.5 q-5.5 8.5 1.5 23.5l102 254q7 23 18.5 31t35.5 8h57q21 0 29 -15t-2 -32l-146 -250q-15 -28 -41 -28h-35q-14 0 -19.5 8.5z" />
<glyph unicode="&#x118;" horiz-adv-x="876" d="M135 43q0 114 1 350t1 340q0 115 -1 380t-1 286q0 43 43 43q53 0 154 -1t119 -1q30 0 148 1t155 1q32 0 32 -33q0 -6 -1 -14t-1 -13q0 -4 1 -12.5t1 -13.5q0 -33 -32 -33h-469q-21 0 -21 -20v-492q0 -20 21 -20h442q33 0 33 -33q0 -6 -1 -14t-1 -13q0 -4 1 -12.5t1 -13.5 q0 -33 -33 -33h-442q-21 0 -21 -21v-514q0 -18 21 -18h475q33 0 33 -33q0 -8 -1 -16t-1 -11q0 -5 1 -14t1 -14q0 -21 -13 -27l-2 -2h-2q-8 -4 -16 -4h-8q-57 -12 -75 -36.5t-7 -65.5l12 -52q13 -51 52 -59.5t104 14.5q24 6 32 -22l11 -41q3 -10 -3 -19t-18 -12l-49 -12 q-193 -44 -231 123l-11 53q-20 83 31 131h-147q-25 0 -131.5 -1t-141.5 -1q-45 0 -45 45z" />
<glyph unicode="&#x119;" horiz-adv-x="911" d="M109 293q0 43 1 139.5t1 153.5q0 53 -1 156t-1 145q0 123 68 202.5t198 79.5q15 0 45 -1t43 -1q11 0 40.5 1t43.5 1q132 0 198 -79t66 -203v-277q0 -57 -61 -57h-500q-21 0 -21 -18v-242q0 -91 46 -141t133 -50h108q172 0 172 191v67q0 33 33 33h61q31 0 31 -33v-67 q0 -124 -60 -204.5t-175 -92.5q-57 -12 -75 -36.5t-7 -65.5l12 -52q13 -51 52 -59.5t104 14.5q24 6 32 -22l11 -41q3 -10 -3 -19t-18 -12l-49 -12q-193 -44 -231 123l-11 53q-20 80 29 129q-8 0 -20 -1t-15 -1q-135 0 -207.5 79t-72.5 220zM229 674q0 -19 21 -19h416 q20 0 20 19v213q0 92 -43.5 134t-116.5 42h-133q-75 0 -119.5 -48t-44.5 -128v-213z" />
<glyph unicode="&#x141;" horiz-adv-x="860" d="M12 535.5q1 12.5 11 21.5q145 132 165 150q13 13 13 24v678q0 19 7.5 26t24.5 7h66q18 0 25.5 -7.5t7.5 -25.5v-563q0 -3 2.5 -4t5.5 2q156 136 199 176q26 23 45 -2l14 -14q12 -12 14 -13q23 -25 -4 -49l-268 -235q-8 -12 -8 -25v-545q0 -18 18 -18h449q32 0 32 -33 q0 -5 -1 -14t-1 -13q0 -5 1 -13t1 -15q0 -33 -32 -33q-57 0 -151 1t-126 1q-37 0 -138.5 -1t-137.5 -1q-45 0 -45 43v524q0 3 -2.5 4t-5.5 -2l-97 -84q-26 -22 -47 2l-16 15q-2 3 -7 7.5t-6 6.5q-9 9 -8 21.5z" />
<glyph unicode="&#x142;" horiz-adv-x="544" d="M20.5 590.5q0.5 12.5 10.5 21.5q139 130 159 148q9 12 9 20v629q0 19 7.5 26t24.5 7h64q18 0 25.5 -7.5t7.5 -25.5v-516q0 -3 2.5 -4t5.5 2l119 113q28 24 47 0q2 -1 5 -4t6.5 -7.5t4.5 -5.5l12 -12q24 -24 -4 -49q-161 -149 -190 -176q-8 -8 -8 -23v-694q0 -35 -33 -35 q-5 0 -16.5 1t-16.5 1t-15.5 -1t-15.5 -1q-32 0 -32 35v581q0 4 -3 4.5t-6 -2.5l-86 -77q-22 -23 -45 0l-14 16l-16 14q-9 9 -8.5 21.5z" />
<glyph unicode="&#x143;" horiz-adv-x="1157" d="M135 33q2 444 2 665v709q0 35 35 35h117q28 0 43 -35q7 -18 141 -311t154 -342q5 -12 63 -135t68 -150q111 -236 135 -324q6 -12 8 -12q4 0 4 10q-10 146 -10 691l-2 575q0 18 7.5 25.5t25.5 7.5h65q18 0 25.5 -7.5t7.5 -25.5q-4 -450 -4 -711l2 -663q0 -37 -35 -37h-117 q-29 0 -47 37l-272 586q-17 41 -78.5 170.5t-69.5 150.5q-113 251 -143 346q-4 12 -8 12t-4 -12q12 -192 12 -788l4 -467q0 -35 -33 -35q-5 0 -15 1t-15 1t-16.5 -1t-16.5 -1q-33 0 -33 35zM539.5 1547q-5.5 9 1.5 24l102 254q7 23 18.5 31t34.5 8h58q21 0 28.5 -15 t-2.5 -32l-145 -250q-15 -29 -41 -29h-35q-14 0 -19.5 9z" />
<glyph unicode="&#x144;" horiz-adv-x="954" d="M123 33q0 41 1 237.5t1 292.5t-1 310t-1 251q0 41 47 41q22 0 95 -1t95 -1t96.5 1t98.5 1q279 3 279 -272q0 -67 -1.5 -193t-1.5 -165q0 -127 1.5 -291t1.5 -211q0 -35 -31 -35q-6 0 -16 1t-15 1t-15 -1t-16 -1q-32 0 -32 35v856q0 83 -40.5 123.5t-125.5 40.5h-275 q-20 0 -20 -19v-1001q0 -35 -31 -35q-6 0 -16 1t-15 1t-14.5 -1t-15.5 -1q-33 0 -33 35zM404.5 1272.5q-5.5 8.5 1.5 23.5l102 254q7 23 18.5 31t34.5 8h57q21 0 29 -15t-2 -32l-145 -250q-15 -28 -41 -28h-35q-14 0 -19.5 8.5z" />
<glyph unicode="&#x15a;" horiz-adv-x="995" d="M90 332v129q0 19 7 26t26 7h63q19 0 27 -7.5t8 -25.5v-137q0 -116 63.5 -164.5t184.5 -48.5h55q117 0 184.5 59t67.5 168v16q0 52 -17 95.5t-41.5 74t-70.5 62t-85 51.5t-103 49q-69 30 -116.5 55.5t-94.5 62.5t-75 78t-45 99.5t-17 130.5q0 147 85 240.5t226 93.5 q12 0 35.5 -1t34.5 -1q14 0 42 1t39 1q146 0 227 -89.5t81 -232.5v-127q0 -32 -33 -32q-5 0 -15.5 1t-15.5 1t-16.5 -1t-16.5 -1q-17 0 -24.5 7.5t-7.5 24.5v117q0 112 -57.5 164.5t-172.5 52.5h-51q-229 0 -229 -213v-4q0 -113 63.5 -178t233.5 -143q81 -38 128.5 -64 t100.5 -65t80 -79t45 -98t18 -131q0 -69 -21.5 -133.5t-62 -115.5t-104 -82t-141.5 -31q-14 0 -43.5 1t-40.5 1q-12 0 -42 -1t-42 -1q-152 0 -238 87t-86 251zM453.5 1537q-5.5 9 1.5 24l102 254q7 23 18 30.5t35 7.5h58q21 0 28.5 -15t-2.5 -32l-145 -250q-15 -28 -41 -28 h-35q-14 0 -19.5 9z" />
<glyph unicode="&#x15b;" horiz-adv-x="878" d="M86 299v90q0 33 33 33q6 0 15.5 -1t12.5 -1q5 0 15 1t16 1q31 0 31 -33v-90q0 -91 47.5 -144t142.5 -53h103q85 0 130.5 50.5t47.5 128.5v8q0 47 -18 83t-63.5 67.5t-76 46.5t-101.5 46q-3 2 -5.5 3t-5.5 2q-133 58 -184 94q-122 88 -126 240v12q0 124 72 205t199 81 q7 0 30 -1t31 -1q7 0 30 1t30 1q135 0 207.5 -79.5t72.5 -223.5v-67q0 -33 -31 -33h-57q-31 0 -31 33v69q-2 96 -48 146.5t-136 50.5h-76q-83 0 -126.5 -47t-45.5 -121v-14q0 -39 13.5 -71.5t34 -54.5t56 -44t66 -36.5t77.5 -34.5q6 -2 9 -3.5t8 -3.5t9 -4q60 -26 99 -46.5 t82.5 -51.5t68 -63.5t41 -79.5t16.5 -103q0 -127 -73.5 -210t-203.5 -83q-9 0 -39.5 1t-38.5 1t-37 -1t-36 -1q-137 0 -212 79.5t-75 225.5zM388 1276.5q-6 8.5 1 23.5l103 254q7 23 18.5 31t34.5 8h57q21 0 29 -15t-2 -32l-146 -250q-15 -28 -41 -28h-34q-14 0 -20 8.5z " />
<glyph unicode="&#x179;" horiz-adv-x="911" d="M57 51v41q0 34 21 74l522 981q54 102 94 164q5 6 3 10.5t-9 3.5q-43 -4 -170 -4h-416q-18 0 -25 7.5t-7 25.5v55q0 18 7 25.5t25 7.5q58 0 187 -1t164 -1q38 0 169 1t164 1q54 0 54 -51v-35q0 -35 -17 -68l-528 -991q-21 -40 -57 -101.5t-39 -68.5q-4 -8 8 -8q49 2 180 2 h438q33 0 33 -33q0 -5 -1 -14.5t-1 -14.5q0 -4 1 -13t1 -13q0 -35 -33 -35q-62 0 -192 1t-172 1q-37 0 -174 -1t-174 -1q-56 0 -56 53zM369.5 1541q-5.5 9 1.5 24l102 254q7 23 18.5 31t34.5 8h58q21 0 28.5 -15.5t-2.5 -32.5l-145 -249q-15 -29 -41 -29h-35q-14 0 -19.5 9z " />
<glyph unicode="&#x17a;" horiz-adv-x="843" d="M61 41v41q0 32 17 59l493 803q8 16 33 54.5t27 41.5q7 11 -4 11q-41 -2 -111 -2h-414q-17 0 -24.5 7.5t-7.5 24.5v54q0 17 7 23.5t25 6.5q17 0 165.5 -1t152.5 -1q14 0 149 1t158 1q47 0 47 -41v-45q0 -29 -16 -55l-490 -797l-65 -104q-7 -10 4 -10q86 4 115 4h432 q32 0 32 -33q0 -6 -1 -13.5t-1 -11.5q0 -5 1 -13.5t1 -14.5q0 -33 -32 -33q-20 0 -173.5 1t-160.5 1q-15 0 -153 -1t-161 -1q-45 0 -45 43zM369.5 1276.5q-5.5 8.5 1.5 23.5l102 254q7 23 18.5 31t34.5 8h58q21 0 28.5 -15t-2.5 -32l-145 -250q-15 -28 -41 -28h-35 q-14 0 -19.5 8.5z" />
<glyph unicode="&#x17b;" horiz-adv-x="911" d="M57 51v41q0 34 21 74l522 981q54 102 94 164q5 6 3 10.5t-9 3.5q-43 -4 -170 -4h-416q-18 0 -25 7.5t-7 25.5v55q0 18 7 25.5t25 7.5q58 0 187 -1t164 -1q38 0 169 1t164 1q54 0 54 -51v-35q0 -35 -17 -68l-528 -991q-21 -40 -57 -101.5t-39 -68.5q-4 -8 8 -8q49 2 180 2 h438q33 0 33 -33q0 -5 -1 -14.5t-1 -14.5q0 -4 1 -13t1 -13q0 -35 -33 -35q-62 0 -192 1t-172 1q-37 0 -174 -1t-174 -1q-56 0 -56 53zM379 1595v97q0 32 35 32h92q33 0 33 -32v-97q0 -34 -33 -34q-8 0 -25 1t-22 1t-21 -1t-24 -1q-35 0 -35 34z" />
<glyph unicode="&#x17c;" horiz-adv-x="843" d="M61 41v41q0 32 17 59l493 803q8 16 33 54.5t27 41.5q7 11 -4 11q-41 -2 -111 -2h-414q-17 0 -24.5 7.5t-7.5 24.5v54q0 17 7 23.5t25 6.5q17 0 165.5 -1t152.5 -1q14 0 149 1t158 1q47 0 47 -41v-45q0 -29 -16 -55l-490 -797l-65 -104q-7 -10 4 -10q86 4 115 4h432 q32 0 32 -33q0 -6 -1 -13.5t-1 -11.5q0 -5 1 -13.5t1 -14.5q0 -33 -32 -33q-20 0 -173.5 1t-160.5 1q-15 0 -153 -1t-161 -1q-45 0 -45 43zM334 1317v96q0 33 35 33h92q33 0 33 -33v-96q0 -35 -33 -35q-9 0 -25 1t-22 1q-4 0 -21 -1t-24 -1q-35 0 -35 35z" />
<glyph unicode="&#x2c6;" horiz-adv-x="806" d="M131 1561v24q0 11 7.5 17.5t19.5 5.5q98 -13 132 32.5t34 167.5q0 25 24 25q10 0 29 -1t26 -1q6 0 24.5 1t29.5 1q24 0 24 -25q0 -122 34.5 -167.5t133.5 -32.5q12 1 19.5 -5.5t7.5 -17.5v-24q0 -23 -25 -29q-21 -6 -51 -6q-80 0 -134.5 53.5t-55.5 149.5q0 8 -7 8 q-6 0 -6 -8q-3 -96 -57.5 -149.5t-134.5 -53.5q-28 0 -49 6q-25 6 -25 29z" />
<glyph unicode="&#x2da;" horiz-adv-x="708" d="M197 1354v59q0 55 32 91t88 36h74q57 0 89 -36t32 -91v-59q0 -56 -32 -91.5t-89 -35.5h-74q-56 0 -88 36t-32 91zM289 1350q0 -45 47 -45h39q21 0 34 12t13 33v65q0 47 -51 47h-35q-47 0 -47 -47v-65z" />
<glyph unicode="&#x2dc;" horiz-adv-x="784" d="M147 1602q0 68 33.5 111.5t106.5 43.5q61 0 127 -49q4 -3 17.5 -13t18 -13t15.5 -10t17 -9.5t15 -5t17 -2.5q29 0 41 17t12 57q0 22 21 22h39q22 0 22 -27q0 -68 -33 -111.5t-106 -43.5q-62 0 -121 45q-9 6 -33.5 24t-40 25.5t-32.5 7.5q-29 0 -41.5 -17.5t-12.5 -56.5 q0 -22 -20 -22h-39q-23 0 -23 27z" />
<glyph unicode="&#x2000;" horiz-adv-x="932" />
<glyph unicode="&#x2001;" horiz-adv-x="1864" />
<glyph unicode="&#x2002;" horiz-adv-x="932" />
<glyph unicode="&#x2003;" horiz-adv-x="1864" />
<glyph unicode="&#x2004;" horiz-adv-x="621" />
<glyph unicode="&#x2005;" horiz-adv-x="466" />
<glyph unicode="&#x2006;" horiz-adv-x="310" />
<glyph unicode="&#x2007;" horiz-adv-x="310" />
<glyph unicode="&#x2008;" horiz-adv-x="233" />
<glyph unicode="&#x2009;" horiz-adv-x="372" />
<glyph unicode="&#x200a;" horiz-adv-x="103" />
<glyph unicode="&#x2010;" horiz-adv-x="854" d="M121 604v53q0 33 33 33l104 -1q103 -1 172 -1q48 0 118 1t99.5 1.5t54.5 -0.5q33 0 33 -33v-53q0 -33 -33 -33q-6 0 -49.5 0.5t-107 1t-115.5 0.5q-50 0 -114 -0.5t-110 -1t-52 -0.5q-33 0 -33 33z" />
<glyph unicode="&#x2011;" horiz-adv-x="854" d="M121 604v53q0 33 33 33l104 -1q103 -1 172 -1q48 0 118 1t99.5 1.5t54.5 -0.5q33 0 33 -33v-53q0 -33 -33 -33q-6 0 -49.5 0.5t-107 1t-115.5 0.5q-50 0 -114 -0.5t-110 -1t-52 -0.5q-33 0 -33 33z" />
<glyph unicode="&#x2012;" horiz-adv-x="854" d="M121 604v53q0 33 33 33l104 -1q103 -1 172 -1q48 0 118 1t99.5 1.5t54.5 -0.5q33 0 33 -33v-53q0 -33 -33 -33q-6 0 -49.5 0.5t-107 1t-115.5 0.5q-50 0 -114 -0.5t-110 -1t-52 -0.5q-33 0 -33 33z" />
<glyph unicode="&#x2013;" horiz-adv-x="944" d="M115 606v45q0 33 32 33l129 -1q128 -1 197 -1q47 0 132 1t125.5 1.5t66.5 -0.5q32 0 32 -33v-45q0 -33 -32 -33q-5 0 -62 0.5t-133.5 1t-128.5 0.5q-50 0 -126.5 -0.5t-135 -1t-64.5 -0.5q-32 0 -32 33z" />
<glyph unicode="&#x2014;" horiz-adv-x="1331" d="M115 608v45q0 31 32 31l222 -1q222 -1 290 -1q45 0 185.5 1t222 1.5t119.5 -0.5q33 0 33 -31q0 -6 -1 -12.5t-1 -11.5q0 -4 1 -10t1 -11q0 -33 -33 -33q-6 0 -113.5 0.5t-234.5 1.5t-179 1q-50 0 -173 -1t-228 -1.5t-111 -0.5q-32 0 -32 33z" />
<glyph unicode="&#x2018;" horiz-adv-x="362" d="M98 1178v92q0 82 38 128t114 46q12 0 12 -10v-39q0 -9 -12 -9q-70 0 -70 -73q0 -6 6 -6h41q33 0 33 -33v-96q0 -33 -33 -33h-94q-35 0 -35 33z" />
<glyph unicode="&#x2019;" horiz-adv-x="356" d="M104 1151v39q0 10 11 10q71 0 71 72q0 8 -8 8h-39q-35 0 -35 33v96q0 33 35 33q7 0 24 -1t23 -1q4 0 21 1t24 1q35 0 35 -33v-92q0 -174 -151 -174q-11 0 -11 8z" />
<glyph unicode="&#x201a;" horiz-adv-x="385" d="M111 -90q0 10 10 10q72 0 72 72q0 8 -7 8h-41q-32 0 -32 33v98q0 33 32 33q9 0 26 -1t22 -1q6 0 22.5 1t22.5 1q34 0 34 -33v-92q0 -176 -151 -176q-10 0 -10 8v39z" />
<glyph unicode="&#x201c;" horiz-adv-x="585" d="M98 1178v92q0 174 152 174q10 0 10 -8v-39q0 -11 -10 -11q-72 0 -72 -71q0 -8 8 -8h39q35 0 35 -33v-96q0 -33 -35 -33h-92q-35 0 -35 33zM322 1178v92q0 174 151 174q12 0 12 -8v-39q0 -11 -12 -11q-70 0 -70 -71q0 -8 7 -8h41q32 0 32 -33v-96q0 -33 -32 -33h-95 q-34 0 -34 33z" />
<glyph unicode="&#x201d;" horiz-adv-x="579" d="M102 1151v39q0 10 13 10q69 0 69 72q0 8 -6 8h-41q-33 0 -33 33v96q0 33 33 33h94q35 0 35 -33v-92q0 -174 -151 -174q-13 0 -13 8zM328 1151v39q0 10 10 10q72 0 72 72q0 8 -9 8h-39q-18 0 -26 8t-8 25v96q0 33 34 33h93q19 0 26.5 -8t7.5 -25v-92q0 -174 -151 -174 q-10 0 -10 8z" />
<glyph unicode="&#x201e;" horiz-adv-x="614" d="M111 -90q0 10 10 10q72 0 72 72q0 8 -7 8h-41q-32 0 -32 33v98q0 33 32 33q9 0 26 -1t22 -1q6 0 22.5 1t22.5 1q34 0 34 -33v-92q0 -176 -151 -176q-10 0 -10 8v39zM340 -90q0 10 12 10q70 0 70 72q0 8 -6 8h-41q-33 0 -33 33v98q0 33 33 33q9 0 25 -1t22 -1t23 1t24 1 q33 0 33 -33v-92q0 -176 -150 -176q-12 0 -12 8v39z" />
<glyph unicode="&#x2022;" horiz-adv-x="460" d="M121 567v138q0 40 43 40h135q41 0 41 -40v-138q0 -41 -41 -41h-135q-43 0 -43 41z" />
<glyph unicode="&#x2026;" horiz-adv-x="948" d="M113 33v98q0 33 32 33q9 0 26 -1t22 -1t21 1t24 1q34 0 34 -33v-98q0 -35 -34 -35q-8 0 -24 1t-21 1t-22 -1t-26 -1q-32 0 -32 35zM395 33v98q0 33 33 33q8 0 25 -1t22 -1t21 1t24 1q35 0 35 -33v-98q0 -16 -9 -25.5t-26 -9.5q-8 0 -24 1t-21 1t-22 -1t-25 -1 q-33 0 -33 35zM678 33v98q0 33 33 33q9 0 25 -1t22 -1q4 0 21 1t24 1q35 0 35 -33v-98q0 -16 -9 -25.5t-26 -9.5q-7 0 -24 1t-21 1q-6 0 -22 -1t-25 -1q-33 0 -33 35z" />
<glyph unicode="&#x202f;" horiz-adv-x="372" />
<glyph unicode="&#x2039;" horiz-adv-x="790" d="M51 612v54q0 21 31 43l559 340q15 10 29 3.5t14 -20.5q0 -9 -1 -19t-1 -12q0 -3 1 -10.5t1 -15.5q0 -16 -7 -25.5t-24 -21.5l-465 -277q-10 -7 -10 -10t10 -10q38 -25 233 -140t234 -137q17 -12 23 -21t6 -26q0 -11 -1 -20t-1 -11t1 -11.5t1 -18.5q0 -14 -13 -20t-28 3 q-543 328 -561 338q-31 22 -31 45z" />
<glyph unicode="&#x203a;" horiz-adv-x="790" d="M109 246v61q0 19 5.5 27.5t22.5 19.5q440 260 467 277q10 7 10 10t-10 10l-465 277q-17 11 -23.5 20.5t-6.5 26.5v57q0 14 14 20.5t29 -3.5q545 -332 559 -340q30 -24 30 -43v-54q0 -26 -32 -45l-562 -338q-13 -9 -25.5 -3t-12.5 20z" />
<glyph unicode="&#x205f;" horiz-adv-x="466" />
<glyph unicode="&#x20ac;" horiz-adv-x="1095" d="M82 860q0 5 1 13t1 12q0 3 -1 9.5t-1 14.5q0 29 33 29h61q25 0 25 25v192q0 133 70.5 210t207.5 77q29 0 117 -1t109 -1q26 0 124.5 1t120.5 1q18 0 25.5 -7.5t7.5 -25.5v-55q0 -33 -31 -33h-454q-168 0 -168 -176v-182q0 -25 24 -25h545q31 0 31 -31v-47q0 -31 -31 -31 h-545q-24 0 -24 -22v-172q0 -25 24 -25h520q31 0 31 -30v-48q0 -30 -31 -30h-520q-24 0 -24 -23v-188q0 -83 43 -127.5t125 -44.5h452q18 0 25.5 -7.5t7.5 -25.5v-55q0 -33 -31 -33q-22 0 -122.5 1t-131.5 1q-36 0 -114.5 -1t-104.5 -1q-133 0 -205.5 78.5t-72.5 206.5v196 q0 23 -25 23h-51q-15 0 -24 9t-9 24q0 3 1 10.5t1 11.5t-1 11t-1 12q0 30 33 30h51q27 0 27 25v172q0 22 -27 22h-61q-15 0 -24 8.5t-9 22.5z" />
<glyph unicode="&#x2122;" horiz-adv-x="1374" d="M119 1389v28q0 25 24 25q36 0 103.5 -1t87.5 -1q16 0 86 1t104 1q25 0 25 -25q0 -5 -1 -7.5t-1 -6.5q0 -5 1 -7t1 -7q0 -25 -25 -25h-137q-10 0 -10 -10v-670q0 -25 -27 -25h-35q-26 0 -26 25v670q0 10 -10 10h-136q-24 0 -24 25zM590 684q2 244 2 381q0 38 -0.5 122.5 t-1 155.5t-0.5 76q0 23 22 23q4 0 21 -1t22 -1q4 0 21 1t22 1q23 0 31 -25l139 -491q29 -107 37 -156q0 -10 6 -10q4 0 7 10q5 41 36 156q29 109 138 491q8 25 30 25q6 0 24 -1t21 -1q4 0 21 1t22 1q23 0 23 -23q0 -5 -0.5 -76t-1 -155.5t-0.5 -122.5l2 -381q0 -25 -27 -25 h-30q-27 0 -27 25v287q0 156 6 360q0 5 -3.5 5.5t-4.5 -3.5q-13 -51 -92 -336t-86 -313q-6 -25 -29 -25h-59q-23 0 -29 25l-178 649q-2 4 -5 3.5t-3 -5.5q6 -102 6 -360v-287q0 -25 -25 -25h-33q-24 0 -24 25z" />
<glyph unicode="&#x25fc;" horiz-adv-x="1167" d="M0 0v1167h1167v-1167h-1167z" />
</font>
</defs>
</svg>
